G04 #@! TF.GenerationSoftware,KiCad,Pcbnew,(6.0.5)*
G04 #@! TF.CreationDate,2022-06-06T23:57:28+09:00*
G04 #@! TF.ProjectId,MHKB,4d484b42-2e6b-4696-9361-645f70636258,1.0*
G04 #@! TF.SameCoordinates,Original*
G04 #@! TF.FileFunction,Legend,Bot*
G04 #@! TF.FilePolarity,Positive*
%FSLAX46Y46*%
G04 Gerber Fmt 4.6, Leading zero omitted, Abs format (unit mm)*
G04 Created by KiCad (PCBNEW (6.0.5)) date 2022-06-06 23:57:28*
%MOMM*%
%LPD*%
G01*
G04 APERTURE LIST*
%ADD10C,0.150000*%
%ADD11C,0.125000*%
%ADD12C,3.500000*%
%ADD13C,0.500000*%
%ADD14C,3.000000*%
%ADD15C,1.000000*%
%ADD16C,0.400000*%
%ADD17C,0.300000*%
%ADD18C,0.800000*%
G04 APERTURE END LIST*
D10*
X61492380Y-76250619D02*
X61016190Y-75917285D01*
X61492380Y-75679190D02*
X60492380Y-75679190D01*
X60492380Y-76060142D01*
X60540000Y-76155380D01*
X60587619Y-76203000D01*
X60682857Y-76250619D01*
X60825714Y-76250619D01*
X60920952Y-76203000D01*
X60968571Y-76155380D01*
X61016190Y-76060142D01*
X61016190Y-75679190D01*
X60968571Y-76679190D02*
X60968571Y-77012523D01*
X61492380Y-77155380D02*
X61492380Y-76679190D01*
X60492380Y-76679190D01*
X60492380Y-77155380D01*
X61444761Y-77536333D02*
X61492380Y-77679190D01*
X61492380Y-77917285D01*
X61444761Y-78012523D01*
X61397142Y-78060142D01*
X61301904Y-78107761D01*
X61206666Y-78107761D01*
X61111428Y-78060142D01*
X61063809Y-78012523D01*
X61016190Y-77917285D01*
X60968571Y-77726809D01*
X60920952Y-77631571D01*
X60873333Y-77583952D01*
X60778095Y-77536333D01*
X60682857Y-77536333D01*
X60587619Y-77583952D01*
X60540000Y-77631571D01*
X60492380Y-77726809D01*
X60492380Y-77964904D01*
X60540000Y-78107761D01*
X60968571Y-78536333D02*
X60968571Y-78869666D01*
X61492380Y-79012523D02*
X61492380Y-78536333D01*
X60492380Y-78536333D01*
X60492380Y-79012523D01*
X60492380Y-79298238D02*
X60492380Y-79869666D01*
X61492380Y-79583952D02*
X60492380Y-79583952D01*
D11*
X63004928Y-65704119D02*
X63040642Y-65775547D01*
X63076357Y-65799357D01*
X63147785Y-65823166D01*
X63254928Y-65823166D01*
X63326357Y-65799357D01*
X63362071Y-65775547D01*
X63397785Y-65727928D01*
X63397785Y-65537452D01*
X62647785Y-65537452D01*
X62647785Y-65704119D01*
X62683500Y-65751738D01*
X62719214Y-65775547D01*
X62790642Y-65799357D01*
X62862071Y-65799357D01*
X62933500Y-65775547D01*
X62969214Y-65751738D01*
X63004928Y-65704119D01*
X63004928Y-65537452D01*
X62647785Y-66275547D02*
X62647785Y-66037452D01*
X63004928Y-66013642D01*
X62969214Y-66037452D01*
X62933500Y-66085071D01*
X62933500Y-66204119D01*
X62969214Y-66251738D01*
X63004928Y-66275547D01*
X63076357Y-66299357D01*
X63254928Y-66299357D01*
X63326357Y-66275547D01*
X63362071Y-66251738D01*
X63397785Y-66204119D01*
X63397785Y-66085071D01*
X63362071Y-66037452D01*
X63326357Y-66013642D01*
X45582071Y-65299357D02*
X45617785Y-65370785D01*
X45617785Y-65489833D01*
X45582071Y-65537452D01*
X45546357Y-65561261D01*
X45474928Y-65585071D01*
X45403500Y-65585071D01*
X45332071Y-65561261D01*
X45296357Y-65537452D01*
X45260642Y-65489833D01*
X45224928Y-65394595D01*
X45189214Y-65346976D01*
X45153500Y-65323166D01*
X45082071Y-65299357D01*
X45010642Y-65299357D01*
X44939214Y-65323166D01*
X44903500Y-65346976D01*
X44867785Y-65394595D01*
X44867785Y-65513642D01*
X44903500Y-65585071D01*
X45617785Y-65799357D02*
X44867785Y-65799357D01*
X44867785Y-65918404D01*
X44903500Y-65989833D01*
X44974928Y-66037452D01*
X45046357Y-66061261D01*
X45189214Y-66085071D01*
X45296357Y-66085071D01*
X45439214Y-66061261D01*
X45510642Y-66037452D01*
X45582071Y-65989833D01*
X45617785Y-65918404D01*
X45617785Y-65799357D01*
X45403500Y-66275547D02*
X45403500Y-66513642D01*
X45617785Y-66227928D02*
X44867785Y-66394595D01*
X45617785Y-66561261D01*
X38102285Y-65307500D02*
X37352285Y-65307500D01*
X37352285Y-65426547D01*
X37388000Y-65497976D01*
X37459428Y-65545595D01*
X37530857Y-65569404D01*
X37673714Y-65593214D01*
X37780857Y-65593214D01*
X37923714Y-65569404D01*
X37995142Y-65545595D01*
X38066571Y-65497976D01*
X38102285Y-65426547D01*
X38102285Y-65307500D01*
X37888000Y-65783690D02*
X37888000Y-66021785D01*
X38102285Y-65736071D02*
X37352285Y-65902738D01*
X38102285Y-66069404D01*
X37352285Y-66164642D02*
X37352285Y-66450357D01*
X38102285Y-66307500D02*
X37352285Y-66307500D01*
X37888000Y-66593214D02*
X37888000Y-66831309D01*
X38102285Y-66545595D02*
X37352285Y-66712261D01*
X38102285Y-66878928D01*
X42327785Y-50063333D02*
X43077785Y-50230000D01*
X42327785Y-50396666D01*
X43006357Y-50849047D02*
X43042071Y-50825238D01*
X43077785Y-50753809D01*
X43077785Y-50706190D01*
X43042071Y-50634761D01*
X42970642Y-50587142D01*
X42899214Y-50563333D01*
X42756357Y-50539523D01*
X42649214Y-50539523D01*
X42506357Y-50563333D01*
X42434928Y-50587142D01*
X42363500Y-50634761D01*
X42327785Y-50706190D01*
X42327785Y-50753809D01*
X42363500Y-50825238D01*
X42399214Y-50849047D01*
X43006357Y-51349047D02*
X43042071Y-51325238D01*
X43077785Y-51253809D01*
X43077785Y-51206190D01*
X43042071Y-51134761D01*
X42970642Y-51087142D01*
X42899214Y-51063333D01*
X42756357Y-51039523D01*
X42649214Y-51039523D01*
X42506357Y-51063333D01*
X42434928Y-51087142D01*
X42363500Y-51134761D01*
X42327785Y-51206190D01*
X42327785Y-51253809D01*
X42363500Y-51325238D01*
X42399214Y-51349047D01*
X50630857Y-50309880D02*
X50666571Y-50286071D01*
X50702285Y-50214642D01*
X50702285Y-50167023D01*
X50666571Y-50095595D01*
X50595142Y-50047976D01*
X50523714Y-50024166D01*
X50380857Y-50000357D01*
X50273714Y-50000357D01*
X50130857Y-50024166D01*
X50059428Y-50047976D01*
X49988000Y-50095595D01*
X49952285Y-50167023D01*
X49952285Y-50214642D01*
X49988000Y-50286071D01*
X50023714Y-50309880D01*
X49952285Y-50619404D02*
X49952285Y-50714642D01*
X49988000Y-50762261D01*
X50059428Y-50809880D01*
X50202285Y-50833690D01*
X50452285Y-50833690D01*
X50595142Y-50809880D01*
X50666571Y-50762261D01*
X50702285Y-50714642D01*
X50702285Y-50619404D01*
X50666571Y-50571785D01*
X50595142Y-50524166D01*
X50452285Y-50500357D01*
X50202285Y-50500357D01*
X50059428Y-50524166D01*
X49988000Y-50571785D01*
X49952285Y-50619404D01*
X50702285Y-51286071D02*
X50702285Y-51047976D01*
X49952285Y-51047976D01*
X50023714Y-51428928D02*
X49988000Y-51452738D01*
X49952285Y-51500357D01*
X49952285Y-51619404D01*
X49988000Y-51667023D01*
X50023714Y-51690833D01*
X50095142Y-51714642D01*
X50166571Y-51714642D01*
X50273714Y-51690833D01*
X50702285Y-51405119D01*
X50702285Y-51714642D01*
X60464928Y-65704119D02*
X60500642Y-65775547D01*
X60536357Y-65799357D01*
X60607785Y-65823166D01*
X60714928Y-65823166D01*
X60786357Y-65799357D01*
X60822071Y-65775547D01*
X60857785Y-65727928D01*
X60857785Y-65537452D01*
X60107785Y-65537452D01*
X60107785Y-65704119D01*
X60143500Y-65751738D01*
X60179214Y-65775547D01*
X60250642Y-65799357D01*
X60322071Y-65799357D01*
X60393500Y-65775547D01*
X60429214Y-65751738D01*
X60464928Y-65704119D01*
X60464928Y-65537452D01*
X60357785Y-66251738D02*
X60857785Y-66251738D01*
X60072071Y-66132690D02*
X60607785Y-66013642D01*
X60607785Y-66323166D01*
X55642857Y-50359880D02*
X55678571Y-50336071D01*
X55714285Y-50264642D01*
X55714285Y-50217023D01*
X55678571Y-50145595D01*
X55607142Y-50097976D01*
X55535714Y-50074166D01*
X55392857Y-50050357D01*
X55285714Y-50050357D01*
X55142857Y-50074166D01*
X55071428Y-50097976D01*
X55000000Y-50145595D01*
X54964285Y-50217023D01*
X54964285Y-50264642D01*
X55000000Y-50336071D01*
X55035714Y-50359880D01*
X54964285Y-50669404D02*
X54964285Y-50764642D01*
X55000000Y-50812261D01*
X55071428Y-50859880D01*
X55214285Y-50883690D01*
X55464285Y-50883690D01*
X55607142Y-50859880D01*
X55678571Y-50812261D01*
X55714285Y-50764642D01*
X55714285Y-50669404D01*
X55678571Y-50621785D01*
X55607142Y-50574166D01*
X55464285Y-50550357D01*
X55214285Y-50550357D01*
X55071428Y-50574166D01*
X55000000Y-50621785D01*
X54964285Y-50669404D01*
X55714285Y-51336071D02*
X55714285Y-51097976D01*
X54964285Y-51097976D01*
X55214285Y-51717023D02*
X55714285Y-51717023D01*
X54928571Y-51597976D02*
X55464285Y-51478928D01*
X55464285Y-51788452D01*
X39823500Y-65525547D02*
X39787785Y-65477928D01*
X39787785Y-65406500D01*
X39823500Y-65335071D01*
X39894928Y-65287452D01*
X39966357Y-65263642D01*
X40109214Y-65239833D01*
X40216357Y-65239833D01*
X40359214Y-65263642D01*
X40430642Y-65287452D01*
X40502071Y-65335071D01*
X40537785Y-65406500D01*
X40537785Y-65454119D01*
X40502071Y-65525547D01*
X40466357Y-65549357D01*
X40216357Y-65549357D01*
X40216357Y-65454119D01*
X40537785Y-65763642D02*
X39787785Y-65763642D01*
X40537785Y-66049357D01*
X39787785Y-66049357D01*
X40537785Y-66287452D02*
X39787785Y-66287452D01*
X39787785Y-66406500D01*
X39823500Y-66477928D01*
X39894928Y-66525547D01*
X39966357Y-66549357D01*
X40109214Y-66573166D01*
X40216357Y-66573166D01*
X40359214Y-66549357D01*
X40430642Y-66525547D01*
X40502071Y-66477928D01*
X40537785Y-66406500D01*
X40537785Y-66287452D01*
X62941428Y-50210119D02*
X62977142Y-50281547D01*
X63012857Y-50305357D01*
X63084285Y-50329166D01*
X63191428Y-50329166D01*
X63262857Y-50305357D01*
X63298571Y-50281547D01*
X63334285Y-50233928D01*
X63334285Y-50043452D01*
X62584285Y-50043452D01*
X62584285Y-50210119D01*
X62620000Y-50257738D01*
X62655714Y-50281547D01*
X62727142Y-50305357D01*
X62798571Y-50305357D01*
X62870000Y-50281547D01*
X62905714Y-50257738D01*
X62941428Y-50210119D01*
X62941428Y-50043452D01*
X62584285Y-50757738D02*
X62584285Y-50662500D01*
X62620000Y-50614880D01*
X62655714Y-50591071D01*
X62762857Y-50543452D01*
X62905714Y-50519642D01*
X63191428Y-50519642D01*
X63262857Y-50543452D01*
X63298571Y-50567261D01*
X63334285Y-50614880D01*
X63334285Y-50710119D01*
X63298571Y-50757738D01*
X63262857Y-50781547D01*
X63191428Y-50805357D01*
X63012857Y-50805357D01*
X62941428Y-50781547D01*
X62905714Y-50757738D01*
X62870000Y-50710119D01*
X62870000Y-50614880D01*
X62905714Y-50567261D01*
X62941428Y-50543452D01*
X63012857Y-50519642D01*
X48086357Y-50309880D02*
X48122071Y-50286071D01*
X48157785Y-50214642D01*
X48157785Y-50167023D01*
X48122071Y-50095595D01*
X48050642Y-50047976D01*
X47979214Y-50024166D01*
X47836357Y-50000357D01*
X47729214Y-50000357D01*
X47586357Y-50024166D01*
X47514928Y-50047976D01*
X47443500Y-50095595D01*
X47407785Y-50167023D01*
X47407785Y-50214642D01*
X47443500Y-50286071D01*
X47479214Y-50309880D01*
X47407785Y-50619404D02*
X47407785Y-50714642D01*
X47443500Y-50762261D01*
X47514928Y-50809880D01*
X47657785Y-50833690D01*
X47907785Y-50833690D01*
X48050642Y-50809880D01*
X48122071Y-50762261D01*
X48157785Y-50714642D01*
X48157785Y-50619404D01*
X48122071Y-50571785D01*
X48050642Y-50524166D01*
X47907785Y-50500357D01*
X47657785Y-50500357D01*
X47514928Y-50524166D01*
X47443500Y-50571785D01*
X47407785Y-50619404D01*
X48157785Y-51286071D02*
X48157785Y-51047976D01*
X47407785Y-51047976D01*
X48157785Y-51714642D02*
X48157785Y-51428928D01*
X48157785Y-51571785D02*
X47407785Y-51571785D01*
X47514928Y-51524166D01*
X47586357Y-51476547D01*
X47622071Y-51428928D01*
X45580857Y-50309880D02*
X45616571Y-50286071D01*
X45652285Y-50214642D01*
X45652285Y-50167023D01*
X45616571Y-50095595D01*
X45545142Y-50047976D01*
X45473714Y-50024166D01*
X45330857Y-50000357D01*
X45223714Y-50000357D01*
X45080857Y-50024166D01*
X45009428Y-50047976D01*
X44938000Y-50095595D01*
X44902285Y-50167023D01*
X44902285Y-50214642D01*
X44938000Y-50286071D01*
X44973714Y-50309880D01*
X44902285Y-50619404D02*
X44902285Y-50714642D01*
X44938000Y-50762261D01*
X45009428Y-50809880D01*
X45152285Y-50833690D01*
X45402285Y-50833690D01*
X45545142Y-50809880D01*
X45616571Y-50762261D01*
X45652285Y-50714642D01*
X45652285Y-50619404D01*
X45616571Y-50571785D01*
X45545142Y-50524166D01*
X45402285Y-50500357D01*
X45152285Y-50500357D01*
X45009428Y-50524166D01*
X44938000Y-50571785D01*
X44902285Y-50619404D01*
X45652285Y-51286071D02*
X45652285Y-51047976D01*
X44902285Y-51047976D01*
X44902285Y-51547976D02*
X44902285Y-51595595D01*
X44938000Y-51643214D01*
X44973714Y-51667023D01*
X45045142Y-51690833D01*
X45188000Y-51714642D01*
X45366571Y-51714642D01*
X45509428Y-51690833D01*
X45580857Y-51667023D01*
X45616571Y-51643214D01*
X45652285Y-51595595D01*
X45652285Y-51547976D01*
X45616571Y-51500357D01*
X45580857Y-51476547D01*
X45509428Y-51452738D01*
X45366571Y-51428928D01*
X45188000Y-51428928D01*
X45045142Y-51452738D01*
X44973714Y-51476547D01*
X44938000Y-51500357D01*
X44902285Y-51547976D01*
X55841285Y-65526547D02*
X55484142Y-65359880D01*
X55841285Y-65240833D02*
X55091285Y-65240833D01*
X55091285Y-65431309D01*
X55127000Y-65478928D01*
X55162714Y-65502738D01*
X55234142Y-65526547D01*
X55341285Y-65526547D01*
X55412714Y-65502738D01*
X55448428Y-65478928D01*
X55484142Y-65431309D01*
X55484142Y-65240833D01*
X55091285Y-65836071D02*
X55091285Y-65931309D01*
X55127000Y-65978928D01*
X55198428Y-66026547D01*
X55341285Y-66050357D01*
X55591285Y-66050357D01*
X55734142Y-66026547D01*
X55805571Y-65978928D01*
X55841285Y-65931309D01*
X55841285Y-65836071D01*
X55805571Y-65788452D01*
X55734142Y-65740833D01*
X55591285Y-65717023D01*
X55341285Y-65717023D01*
X55198428Y-65740833D01*
X55127000Y-65788452D01*
X55091285Y-65836071D01*
X55091285Y-66217023D02*
X55841285Y-66336071D01*
X55305571Y-66431309D01*
X55841285Y-66526547D01*
X55091285Y-66645595D01*
X55162714Y-66812261D02*
X55127000Y-66836071D01*
X55091285Y-66883690D01*
X55091285Y-67002738D01*
X55127000Y-67050357D01*
X55162714Y-67074166D01*
X55234142Y-67097976D01*
X55305571Y-67097976D01*
X55412714Y-67074166D01*
X55841285Y-66788452D01*
X55841285Y-67097976D01*
X53130857Y-50309880D02*
X53166571Y-50286071D01*
X53202285Y-50214642D01*
X53202285Y-50167023D01*
X53166571Y-50095595D01*
X53095142Y-50047976D01*
X53023714Y-50024166D01*
X52880857Y-50000357D01*
X52773714Y-50000357D01*
X52630857Y-50024166D01*
X52559428Y-50047976D01*
X52488000Y-50095595D01*
X52452285Y-50167023D01*
X52452285Y-50214642D01*
X52488000Y-50286071D01*
X52523714Y-50309880D01*
X52452285Y-50619404D02*
X52452285Y-50714642D01*
X52488000Y-50762261D01*
X52559428Y-50809880D01*
X52702285Y-50833690D01*
X52952285Y-50833690D01*
X53095142Y-50809880D01*
X53166571Y-50762261D01*
X53202285Y-50714642D01*
X53202285Y-50619404D01*
X53166571Y-50571785D01*
X53095142Y-50524166D01*
X52952285Y-50500357D01*
X52702285Y-50500357D01*
X52559428Y-50524166D01*
X52488000Y-50571785D01*
X52452285Y-50619404D01*
X53202285Y-51286071D02*
X53202285Y-51047976D01*
X52452285Y-51047976D01*
X52452285Y-51405119D02*
X52452285Y-51714642D01*
X52738000Y-51547976D01*
X52738000Y-51619404D01*
X52773714Y-51667023D01*
X52809428Y-51690833D01*
X52880857Y-51714642D01*
X53059428Y-51714642D01*
X53130857Y-51690833D01*
X53166571Y-51667023D01*
X53202285Y-51619404D01*
X53202285Y-51476547D01*
X53166571Y-51428928D01*
X53130857Y-51405119D01*
X37220000Y-50349047D02*
X37184285Y-50301428D01*
X37184285Y-50230000D01*
X37220000Y-50158571D01*
X37291428Y-50110952D01*
X37362857Y-50087142D01*
X37505714Y-50063333D01*
X37612857Y-50063333D01*
X37755714Y-50087142D01*
X37827142Y-50110952D01*
X37898571Y-50158571D01*
X37934285Y-50230000D01*
X37934285Y-50277619D01*
X37898571Y-50349047D01*
X37862857Y-50372857D01*
X37612857Y-50372857D01*
X37612857Y-50277619D01*
X37934285Y-50587142D02*
X37184285Y-50587142D01*
X37934285Y-50872857D01*
X37184285Y-50872857D01*
X37934285Y-51110952D02*
X37184285Y-51110952D01*
X37184285Y-51230000D01*
X37220000Y-51301428D01*
X37291428Y-51349047D01*
X37362857Y-51372857D01*
X37505714Y-51396666D01*
X37612857Y-51396666D01*
X37755714Y-51372857D01*
X37827142Y-51349047D01*
X37898571Y-51301428D01*
X37934285Y-51230000D01*
X37934285Y-51110952D01*
X42363500Y-65525547D02*
X42327785Y-65477928D01*
X42327785Y-65406500D01*
X42363500Y-65335071D01*
X42434928Y-65287452D01*
X42506357Y-65263642D01*
X42649214Y-65239833D01*
X42756357Y-65239833D01*
X42899214Y-65263642D01*
X42970642Y-65287452D01*
X43042071Y-65335071D01*
X43077785Y-65406500D01*
X43077785Y-65454119D01*
X43042071Y-65525547D01*
X43006357Y-65549357D01*
X42756357Y-65549357D01*
X42756357Y-65454119D01*
X43077785Y-65763642D02*
X42327785Y-65763642D01*
X43077785Y-66049357D01*
X42327785Y-66049357D01*
X43077785Y-66287452D02*
X42327785Y-66287452D01*
X42327785Y-66406500D01*
X42363500Y-66477928D01*
X42434928Y-66525547D01*
X42506357Y-66549357D01*
X42649214Y-66573166D01*
X42756357Y-66573166D01*
X42899214Y-66549357D01*
X42970642Y-66525547D01*
X43042071Y-66477928D01*
X43077785Y-66406500D01*
X43077785Y-66287452D01*
X35457785Y-50321261D02*
X35100642Y-50154595D01*
X35457785Y-50035547D02*
X34707785Y-50035547D01*
X34707785Y-50226023D01*
X34743500Y-50273642D01*
X34779214Y-50297452D01*
X34850642Y-50321261D01*
X34957785Y-50321261D01*
X35029214Y-50297452D01*
X35064928Y-50273642D01*
X35100642Y-50226023D01*
X35100642Y-50035547D01*
X35243500Y-50511738D02*
X35243500Y-50749833D01*
X35457785Y-50464119D02*
X34707785Y-50630785D01*
X35457785Y-50797452D01*
X34707785Y-50916500D02*
X35457785Y-51035547D01*
X34922071Y-51130785D01*
X35457785Y-51226023D01*
X34707785Y-51345071D01*
D10*
D11*
X40537785Y-50392690D02*
X40180642Y-50226023D01*
X40537785Y-50106976D02*
X39787785Y-50106976D01*
X39787785Y-50297452D01*
X39823500Y-50345071D01*
X39859214Y-50368880D01*
X39930642Y-50392690D01*
X40037785Y-50392690D01*
X40109214Y-50368880D01*
X40144928Y-50345071D01*
X40180642Y-50297452D01*
X40180642Y-50106976D01*
X40502071Y-50583166D02*
X40537785Y-50654595D01*
X40537785Y-50773642D01*
X40502071Y-50821261D01*
X40466357Y-50845071D01*
X40394928Y-50868880D01*
X40323500Y-50868880D01*
X40252071Y-50845071D01*
X40216357Y-50821261D01*
X40180642Y-50773642D01*
X40144928Y-50678404D01*
X40109214Y-50630785D01*
X40073500Y-50606976D01*
X40002071Y-50583166D01*
X39930642Y-50583166D01*
X39859214Y-50606976D01*
X39823500Y-50630785D01*
X39787785Y-50678404D01*
X39787785Y-50797452D01*
X39823500Y-50868880D01*
X39787785Y-51011738D02*
X39787785Y-51297452D01*
X40537785Y-51154595D02*
X39787785Y-51154595D01*
X53237785Y-65526547D02*
X52880642Y-65359880D01*
X53237785Y-65240833D02*
X52487785Y-65240833D01*
X52487785Y-65431309D01*
X52523500Y-65478928D01*
X52559214Y-65502738D01*
X52630642Y-65526547D01*
X52737785Y-65526547D01*
X52809214Y-65502738D01*
X52844928Y-65478928D01*
X52880642Y-65431309D01*
X52880642Y-65240833D01*
X52487785Y-65836071D02*
X52487785Y-65931309D01*
X52523500Y-65978928D01*
X52594928Y-66026547D01*
X52737785Y-66050357D01*
X52987785Y-66050357D01*
X53130642Y-66026547D01*
X53202071Y-65978928D01*
X53237785Y-65931309D01*
X53237785Y-65836071D01*
X53202071Y-65788452D01*
X53130642Y-65740833D01*
X52987785Y-65717023D01*
X52737785Y-65717023D01*
X52594928Y-65740833D01*
X52523500Y-65788452D01*
X52487785Y-65836071D01*
X52487785Y-66217023D02*
X53237785Y-66336071D01*
X52702071Y-66431309D01*
X53237785Y-66526547D01*
X52487785Y-66645595D01*
X53237785Y-67097976D02*
X53237785Y-66812261D01*
X53237785Y-66955119D02*
X52487785Y-66955119D01*
X52594928Y-66907500D01*
X52666357Y-66859880D01*
X52702071Y-66812261D01*
X48122071Y-65311261D02*
X48157785Y-65382690D01*
X48157785Y-65501738D01*
X48122071Y-65549357D01*
X48086357Y-65573166D01*
X48014928Y-65596976D01*
X47943500Y-65596976D01*
X47872071Y-65573166D01*
X47836357Y-65549357D01*
X47800642Y-65501738D01*
X47764928Y-65406500D01*
X47729214Y-65358880D01*
X47693500Y-65335071D01*
X47622071Y-65311261D01*
X47550642Y-65311261D01*
X47479214Y-65335071D01*
X47443500Y-65358880D01*
X47407785Y-65406500D01*
X47407785Y-65525547D01*
X47443500Y-65596976D01*
X48086357Y-66096976D02*
X48122071Y-66073166D01*
X48157785Y-66001738D01*
X48157785Y-65954119D01*
X48122071Y-65882690D01*
X48050642Y-65835071D01*
X47979214Y-65811261D01*
X47836357Y-65787452D01*
X47729214Y-65787452D01*
X47586357Y-65811261D01*
X47514928Y-65835071D01*
X47443500Y-65882690D01*
X47407785Y-65954119D01*
X47407785Y-66001738D01*
X47443500Y-66073166D01*
X47479214Y-66096976D01*
X48157785Y-66549357D02*
X48157785Y-66311261D01*
X47407785Y-66311261D01*
X60337928Y-50146619D02*
X60373642Y-50218047D01*
X60409357Y-50241857D01*
X60480785Y-50265666D01*
X60587928Y-50265666D01*
X60659357Y-50241857D01*
X60695071Y-50218047D01*
X60730785Y-50170428D01*
X60730785Y-49979952D01*
X59980785Y-49979952D01*
X59980785Y-50146619D01*
X60016500Y-50194238D01*
X60052214Y-50218047D01*
X60123642Y-50241857D01*
X60195071Y-50241857D01*
X60266500Y-50218047D01*
X60302214Y-50194238D01*
X60337928Y-50146619D01*
X60337928Y-49979952D01*
X60052214Y-50456142D02*
X60016500Y-50479952D01*
X59980785Y-50527571D01*
X59980785Y-50646619D01*
X60016500Y-50694238D01*
X60052214Y-50718047D01*
X60123642Y-50741857D01*
X60195071Y-50741857D01*
X60302214Y-50718047D01*
X60730785Y-50432333D01*
X60730785Y-50741857D01*
X58280857Y-50309880D02*
X58316571Y-50286071D01*
X58352285Y-50214642D01*
X58352285Y-50167023D01*
X58316571Y-50095595D01*
X58245142Y-50047976D01*
X58173714Y-50024166D01*
X58030857Y-50000357D01*
X57923714Y-50000357D01*
X57780857Y-50024166D01*
X57709428Y-50047976D01*
X57638000Y-50095595D01*
X57602285Y-50167023D01*
X57602285Y-50214642D01*
X57638000Y-50286071D01*
X57673714Y-50309880D01*
X57602285Y-50619404D02*
X57602285Y-50714642D01*
X57638000Y-50762261D01*
X57709428Y-50809880D01*
X57852285Y-50833690D01*
X58102285Y-50833690D01*
X58245142Y-50809880D01*
X58316571Y-50762261D01*
X58352285Y-50714642D01*
X58352285Y-50619404D01*
X58316571Y-50571785D01*
X58245142Y-50524166D01*
X58102285Y-50500357D01*
X57852285Y-50500357D01*
X57709428Y-50524166D01*
X57638000Y-50571785D01*
X57602285Y-50619404D01*
X58352285Y-51286071D02*
X58352285Y-51047976D01*
X57602285Y-51047976D01*
X57602285Y-51690833D02*
X57602285Y-51452738D01*
X57959428Y-51428928D01*
X57923714Y-51452738D01*
X57888000Y-51500357D01*
X57888000Y-51619404D01*
X57923714Y-51667023D01*
X57959428Y-51690833D01*
X58030857Y-51714642D01*
X58209428Y-51714642D01*
X58280857Y-51690833D01*
X58316571Y-51667023D01*
X58352285Y-51619404D01*
X58352285Y-51500357D01*
X58316571Y-51452738D01*
X58280857Y-51428928D01*
X58352285Y-65526547D02*
X57995142Y-65359880D01*
X58352285Y-65240833D02*
X57602285Y-65240833D01*
X57602285Y-65431309D01*
X57638000Y-65478928D01*
X57673714Y-65502738D01*
X57745142Y-65526547D01*
X57852285Y-65526547D01*
X57923714Y-65502738D01*
X57959428Y-65478928D01*
X57995142Y-65431309D01*
X57995142Y-65240833D01*
X57602285Y-65836071D02*
X57602285Y-65931309D01*
X57638000Y-65978928D01*
X57709428Y-66026547D01*
X57852285Y-66050357D01*
X58102285Y-66050357D01*
X58245142Y-66026547D01*
X58316571Y-65978928D01*
X58352285Y-65931309D01*
X58352285Y-65836071D01*
X58316571Y-65788452D01*
X58245142Y-65740833D01*
X58102285Y-65717023D01*
X57852285Y-65717023D01*
X57709428Y-65740833D01*
X57638000Y-65788452D01*
X57602285Y-65836071D01*
X57602285Y-66217023D02*
X58352285Y-66336071D01*
X57816571Y-66431309D01*
X58352285Y-66526547D01*
X57602285Y-66645595D01*
X57602285Y-66788452D02*
X57602285Y-67097976D01*
X57888000Y-66931309D01*
X57888000Y-67002738D01*
X57923714Y-67050357D01*
X57959428Y-67074166D01*
X58030857Y-67097976D01*
X58209428Y-67097976D01*
X58280857Y-67074166D01*
X58316571Y-67050357D01*
X58352285Y-67002738D01*
X58352285Y-66859880D01*
X58316571Y-66812261D01*
X58280857Y-66788452D01*
X50634285Y-65526547D02*
X50277142Y-65359880D01*
X50634285Y-65240833D02*
X49884285Y-65240833D01*
X49884285Y-65431309D01*
X49920000Y-65478928D01*
X49955714Y-65502738D01*
X50027142Y-65526547D01*
X50134285Y-65526547D01*
X50205714Y-65502738D01*
X50241428Y-65478928D01*
X50277142Y-65431309D01*
X50277142Y-65240833D01*
X49884285Y-65836071D02*
X49884285Y-65931309D01*
X49920000Y-65978928D01*
X49991428Y-66026547D01*
X50134285Y-66050357D01*
X50384285Y-66050357D01*
X50527142Y-66026547D01*
X50598571Y-65978928D01*
X50634285Y-65931309D01*
X50634285Y-65836071D01*
X50598571Y-65788452D01*
X50527142Y-65740833D01*
X50384285Y-65717023D01*
X50134285Y-65717023D01*
X49991428Y-65740833D01*
X49920000Y-65788452D01*
X49884285Y-65836071D01*
X49884285Y-66217023D02*
X50634285Y-66336071D01*
X50098571Y-66431309D01*
X50634285Y-66526547D01*
X49884285Y-66645595D01*
X49884285Y-66931309D02*
X49884285Y-66978928D01*
X49920000Y-67026547D01*
X49955714Y-67050357D01*
X50027142Y-67074166D01*
X50170000Y-67097976D01*
X50348571Y-67097976D01*
X50491428Y-67074166D01*
X50562857Y-67050357D01*
X50598571Y-67026547D01*
X50634285Y-66978928D01*
X50634285Y-66931309D01*
X50598571Y-66883690D01*
X50562857Y-66859880D01*
X50491428Y-66836071D01*
X50348571Y-66812261D01*
X50170000Y-66812261D01*
X50027142Y-66836071D01*
X49955714Y-66859880D01*
X49920000Y-66883690D01*
X49884285Y-66931309D01*
X35457785Y-65585071D02*
X35457785Y-65346976D01*
X34707785Y-65346976D01*
X35064928Y-65751738D02*
X35064928Y-65918404D01*
X35457785Y-65989833D02*
X35457785Y-65751738D01*
X34707785Y-65751738D01*
X34707785Y-65989833D01*
X35457785Y-66204119D02*
X34707785Y-66204119D01*
X34707785Y-66323166D01*
X34743500Y-66394595D01*
X34814928Y-66442214D01*
X34886357Y-66466023D01*
X35029214Y-66489833D01*
X35136357Y-66489833D01*
X35279214Y-66466023D01*
X35350642Y-66442214D01*
X35422071Y-66394595D01*
X35457785Y-66323166D01*
X35457785Y-66204119D01*
D12*
X48171000Y-53802000D02*
X41471000Y-53802000D01*
D10*
X39921000Y-57502000D02*
X42951000Y-57502000D01*
X39921000Y-53052000D02*
X39921000Y-57502000D01*
X49971000Y-52002000D02*
X41770999Y-52002000D01*
D13*
X40121000Y-57302000D02*
X42571000Y-57302000D01*
X49771000Y-55352000D02*
X48471000Y-55302000D01*
D14*
X41401000Y-53502000D02*
X41401000Y-55742000D01*
D15*
X49471000Y-52602000D02*
X49471000Y-55102000D01*
D16*
X49821000Y-52202000D02*
X48571000Y-52202000D01*
D17*
X39771000Y-54552000D02*
X39771000Y-53902000D01*
D10*
X49951000Y-54602000D02*
X49951000Y-52352000D01*
X39671000Y-54652000D02*
X39871000Y-54652000D01*
D18*
X40271000Y-57002000D02*
X40271000Y-55202001D01*
D10*
X49971000Y-55602000D02*
X49971000Y-52002000D01*
X45171000Y-55602000D02*
X49971000Y-55602000D01*
X39671000Y-53902000D02*
X39671000Y-54652000D01*
X41770999Y-52001999D02*
G75*
G03*
X39671000Y-53902001I-100000J-1999999D01*
G01*
X45171000Y-55602000D02*
G75*
G03*
X42954682Y-57480529I-65001J-2169999D01*
G01*
D15*
X44771000Y-55202000D02*
G75*
G03*
X42554682Y-57080529I-65001J-2169999D01*
G01*
D12*
X43408000Y-34752000D02*
X36708000Y-34752000D01*
D10*
X35158000Y-34002000D02*
X35158000Y-38452000D01*
X45188000Y-35552000D02*
X45188000Y-33302000D01*
X34908000Y-35602000D02*
X35108000Y-35602000D01*
D16*
X45058000Y-33152000D02*
X43808000Y-33152000D01*
D10*
X40408000Y-36552000D02*
X45208000Y-36552000D01*
X34908000Y-34852000D02*
X34908000Y-35602000D01*
D17*
X35008000Y-35502000D02*
X35008000Y-34852000D01*
D10*
X45208000Y-36552000D02*
X45208000Y-32952000D01*
D14*
X36638000Y-34452000D02*
X36638000Y-36692000D01*
D15*
X44708000Y-33552000D02*
X44708000Y-36052000D01*
D18*
X35508000Y-37952000D02*
X35508000Y-36152001D01*
D10*
X45208000Y-32952000D02*
X37007999Y-32952000D01*
X35158000Y-38452000D02*
X38188000Y-38452000D01*
D13*
X35358000Y-38252000D02*
X37808000Y-38252000D01*
X45008000Y-36302000D02*
X43708000Y-36252000D01*
D10*
X40408000Y-36552000D02*
G75*
G03*
X38191682Y-38430529I-65001J-2169999D01*
G01*
D15*
X40008000Y-36152000D02*
G75*
G03*
X37791682Y-38030529I-65001J-2169999D01*
G01*
D10*
X37007999Y-32951999D02*
G75*
G03*
X34908000Y-34852001I-100000J-1999999D01*
G01*
D12*
X62458000Y-34752000D02*
X55758000Y-34752000D01*
D13*
X54408000Y-38252000D02*
X56858000Y-38252000D01*
D10*
X64258000Y-32952000D02*
X56057999Y-32952000D01*
X64258000Y-36552000D02*
X64258000Y-32952000D01*
X64238000Y-35552000D02*
X64238000Y-33302000D01*
D16*
X64108000Y-33152000D02*
X62858000Y-33152000D01*
D14*
X55688000Y-34452000D02*
X55688000Y-36692000D01*
D15*
X63758000Y-33552000D02*
X63758000Y-36052000D01*
D10*
X53958000Y-35602000D02*
X54158000Y-35602000D01*
X59458000Y-36552000D02*
X64258000Y-36552000D01*
D13*
X64058000Y-36302000D02*
X62758000Y-36252000D01*
D18*
X54558000Y-37952000D02*
X54558000Y-36152001D01*
D10*
X54208000Y-34002000D02*
X54208000Y-38452000D01*
D17*
X54058000Y-35502000D02*
X54058000Y-34852000D01*
D10*
X54208000Y-38452000D02*
X57238000Y-38452000D01*
X53958000Y-34852000D02*
X53958000Y-35602000D01*
X56057999Y-32951999D02*
G75*
G03*
X53958000Y-34852001I-100000J-1999999D01*
G01*
X59458000Y-36552000D02*
G75*
G03*
X57241682Y-38430529I-65001J-2169999D01*
G01*
D15*
X59058000Y-36152000D02*
G75*
G03*
X56841682Y-38030529I-65001J-2169999D01*
G01*
D10*
X83288000Y-35552000D02*
X83288000Y-33302000D01*
X73008000Y-35602000D02*
X73208000Y-35602000D01*
D18*
X73608000Y-37952000D02*
X73608000Y-36152001D01*
D13*
X83108000Y-36302000D02*
X81808000Y-36252000D01*
D14*
X74738000Y-34452000D02*
X74738000Y-36692000D01*
D10*
X83308000Y-36552000D02*
X83308000Y-32952000D01*
X73258000Y-38452000D02*
X76288000Y-38452000D01*
D17*
X73108000Y-35502000D02*
X73108000Y-34852000D01*
D10*
X78508000Y-36552000D02*
X83308000Y-36552000D01*
D13*
X73458000Y-38252000D02*
X75908000Y-38252000D01*
D10*
X83308000Y-32952000D02*
X75107999Y-32952000D01*
D12*
X81508000Y-34752000D02*
X74808000Y-34752000D01*
D10*
X73008000Y-34852000D02*
X73008000Y-35602000D01*
D15*
X82808000Y-33552000D02*
X82808000Y-36052000D01*
D10*
X73258000Y-34002000D02*
X73258000Y-38452000D01*
D16*
X83158000Y-33152000D02*
X81908000Y-33152000D01*
D10*
X78508000Y-36552000D02*
G75*
G03*
X76291682Y-38430529I-65001J-2169999D01*
G01*
X75107999Y-32951999D02*
G75*
G03*
X73008000Y-34852001I-100000J-1999999D01*
G01*
D15*
X78108000Y-36152000D02*
G75*
G03*
X75891682Y-38030529I-65001J-2169999D01*
G01*
D10*
X102358000Y-36552000D02*
X102358000Y-32952000D01*
D17*
X92158000Y-35502000D02*
X92158000Y-34852000D01*
D10*
X102338000Y-35552000D02*
X102338000Y-33302000D01*
X92058000Y-35602000D02*
X92258000Y-35602000D01*
X97558000Y-36552000D02*
X102358000Y-36552000D01*
D16*
X102208000Y-33152000D02*
X100958000Y-33152000D01*
D10*
X92308000Y-38452000D02*
X95338000Y-38452000D01*
D13*
X92508000Y-38252000D02*
X94958000Y-38252000D01*
D15*
X101858000Y-33552000D02*
X101858000Y-36052000D01*
D18*
X92658000Y-37952000D02*
X92658000Y-36152001D01*
D14*
X93788000Y-34452000D02*
X93788000Y-36692000D01*
D12*
X100558000Y-34752000D02*
X93858000Y-34752000D01*
D10*
X92308000Y-34002000D02*
X92308000Y-38452000D01*
X102358000Y-32952000D02*
X94157999Y-32952000D01*
X92058000Y-34852000D02*
X92058000Y-35602000D01*
D13*
X102158000Y-36302000D02*
X100858000Y-36252000D01*
D10*
X94157999Y-32951999D02*
G75*
G03*
X92058000Y-34852001I-100000J-1999999D01*
G01*
X97558000Y-36552000D02*
G75*
G03*
X95341682Y-38430529I-65001J-2169999D01*
G01*
D15*
X97158000Y-36152000D02*
G75*
G03*
X94941682Y-38030529I-65001J-2169999D01*
G01*
D10*
X116608000Y-36552000D02*
X121408000Y-36552000D01*
X121408000Y-32952000D02*
X113207999Y-32952000D01*
D14*
X112838000Y-34452000D02*
X112838000Y-36692000D01*
D13*
X121208000Y-36302000D02*
X119908000Y-36252000D01*
D10*
X121408000Y-36552000D02*
X121408000Y-32952000D01*
X121388000Y-35552000D02*
X121388000Y-33302000D01*
D18*
X111708000Y-37952000D02*
X111708000Y-36152001D01*
D17*
X111208000Y-35502000D02*
X111208000Y-34852000D01*
D10*
X111358000Y-34002000D02*
X111358000Y-38452000D01*
D15*
X120908000Y-33552000D02*
X120908000Y-36052000D01*
D10*
X111358000Y-38452000D02*
X114388000Y-38452000D01*
X111108000Y-35602000D02*
X111308000Y-35602000D01*
X111108000Y-34852000D02*
X111108000Y-35602000D01*
D13*
X111558000Y-38252000D02*
X114008000Y-38252000D01*
D16*
X121258000Y-33152000D02*
X120008000Y-33152000D01*
D12*
X119608000Y-34752000D02*
X112908000Y-34752000D01*
D10*
X116608000Y-36552000D02*
G75*
G03*
X114391682Y-38430529I-65001J-2169999D01*
G01*
D15*
X116208000Y-36152000D02*
G75*
G03*
X113991682Y-38030529I-65001J-2169999D01*
G01*
D10*
X113207999Y-32951999D02*
G75*
G03*
X111108000Y-34852001I-100000J-1999999D01*
G01*
X130408000Y-38452000D02*
X133438000Y-38452000D01*
X140458000Y-36552000D02*
X140458000Y-32952000D01*
D13*
X130608000Y-38252000D02*
X133058000Y-38252000D01*
D10*
X135658000Y-36552000D02*
X140458000Y-36552000D01*
D14*
X131888000Y-34452000D02*
X131888000Y-36692000D01*
D16*
X140308000Y-33152000D02*
X139058000Y-33152000D01*
D18*
X130758000Y-37952000D02*
X130758000Y-36152001D01*
D13*
X140258000Y-36302000D02*
X138958000Y-36252000D01*
D10*
X130158000Y-34852000D02*
X130158000Y-35602000D01*
D12*
X138658000Y-34752000D02*
X131958000Y-34752000D01*
D10*
X140458000Y-32952000D02*
X132257999Y-32952000D01*
X130408000Y-34002000D02*
X130408000Y-38452000D01*
D17*
X130258000Y-35502000D02*
X130258000Y-34852000D01*
D10*
X140438000Y-35552000D02*
X140438000Y-33302000D01*
X130158000Y-35602000D02*
X130358000Y-35602000D01*
D15*
X139958000Y-33552000D02*
X139958000Y-36052000D01*
D10*
X135658000Y-36552000D02*
G75*
G03*
X133441682Y-38430529I-65001J-2169999D01*
G01*
X132257999Y-32951999D02*
G75*
G03*
X130158000Y-34852001I-100000J-1999999D01*
G01*
D15*
X135258000Y-36152000D02*
G75*
G03*
X133041682Y-38030529I-65001J-2169999D01*
G01*
D10*
X149208000Y-35602000D02*
X149408000Y-35602000D01*
X149458000Y-34002000D02*
X149458000Y-38452000D01*
X149458000Y-38452000D02*
X152488000Y-38452000D01*
X159508000Y-36552000D02*
X159508000Y-32952000D01*
D15*
X159008000Y-33552000D02*
X159008000Y-36052000D01*
D17*
X149308000Y-35502000D02*
X149308000Y-34852000D01*
D10*
X154708000Y-36552000D02*
X159508000Y-36552000D01*
D18*
X149808000Y-37952000D02*
X149808000Y-36152001D01*
D10*
X149208000Y-34852000D02*
X149208000Y-35602000D01*
D12*
X157708000Y-34752000D02*
X151008000Y-34752000D01*
D14*
X150938000Y-34452000D02*
X150938000Y-36692000D01*
D13*
X159308000Y-36302000D02*
X158008000Y-36252000D01*
X149658000Y-38252000D02*
X152108000Y-38252000D01*
D10*
X159488000Y-35552000D02*
X159488000Y-33302000D01*
D16*
X159358000Y-33152000D02*
X158108000Y-33152000D01*
D10*
X159508000Y-32952000D02*
X151307999Y-32952000D01*
X151307999Y-32951999D02*
G75*
G03*
X149208000Y-34852001I-100000J-1999999D01*
G01*
X154708000Y-36552000D02*
G75*
G03*
X152491682Y-38430529I-65001J-2169999D01*
G01*
D15*
X154308000Y-36152000D02*
G75*
G03*
X152091682Y-38030529I-65001J-2169999D01*
G01*
D10*
X168508000Y-34002000D02*
X168508000Y-38452000D01*
D18*
X168858000Y-37952000D02*
X168858000Y-36152001D01*
D10*
X178538000Y-35552000D02*
X178538000Y-33302000D01*
D13*
X168708000Y-38252000D02*
X171158000Y-38252000D01*
D10*
X168258000Y-35602000D02*
X168458000Y-35602000D01*
X168508000Y-38452000D02*
X171538000Y-38452000D01*
D12*
X176758000Y-34752000D02*
X170058000Y-34752000D01*
D10*
X178558000Y-36552000D02*
X178558000Y-32952000D01*
D15*
X178058000Y-33552000D02*
X178058000Y-36052000D01*
D10*
X168258000Y-34852000D02*
X168258000Y-35602000D01*
X178558000Y-32952000D02*
X170357999Y-32952000D01*
D13*
X178358000Y-36302000D02*
X177058000Y-36252000D01*
D16*
X178408000Y-33152000D02*
X177158000Y-33152000D01*
D10*
X173758000Y-36552000D02*
X178558000Y-36552000D01*
D14*
X169988000Y-34452000D02*
X169988000Y-36692000D01*
D17*
X168358000Y-35502000D02*
X168358000Y-34852000D01*
D15*
X173358000Y-36152000D02*
G75*
G03*
X171141682Y-38030529I-65001J-2169999D01*
G01*
D10*
X170357999Y-32951999D02*
G75*
G03*
X168258000Y-34852001I-100000J-1999999D01*
G01*
X173758000Y-36552000D02*
G75*
G03*
X171541682Y-38430529I-65001J-2169999D01*
G01*
X197608000Y-32952000D02*
X189407999Y-32952000D01*
X187558000Y-38452000D02*
X190588000Y-38452000D01*
X197588000Y-35552000D02*
X197588000Y-33302000D01*
X187308000Y-35602000D02*
X187508000Y-35602000D01*
D13*
X197408000Y-36302000D02*
X196108000Y-36252000D01*
D18*
X187908000Y-37952000D02*
X187908000Y-36152001D01*
D14*
X189038000Y-34452000D02*
X189038000Y-36692000D01*
D10*
X187308000Y-34852000D02*
X187308000Y-35602000D01*
X197608000Y-36552000D02*
X197608000Y-32952000D01*
D15*
X197108000Y-33552000D02*
X197108000Y-36052000D01*
D10*
X187558000Y-34002000D02*
X187558000Y-38452000D01*
D17*
X187408000Y-35502000D02*
X187408000Y-34852000D01*
D10*
X192808000Y-36552000D02*
X197608000Y-36552000D01*
D16*
X197458000Y-33152000D02*
X196208000Y-33152000D01*
D13*
X187758000Y-38252000D02*
X190208000Y-38252000D01*
D12*
X195808000Y-34752000D02*
X189108000Y-34752000D01*
D10*
X189407999Y-32951999D02*
G75*
G03*
X187308000Y-34852001I-100000J-1999999D01*
G01*
D15*
X192408000Y-36152000D02*
G75*
G03*
X190191682Y-38030529I-65001J-2169999D01*
G01*
D10*
X192808000Y-36552000D02*
G75*
G03*
X190591682Y-38430529I-65001J-2169999D01*
G01*
D17*
X206458000Y-35502000D02*
X206458000Y-34852000D01*
D18*
X206958000Y-37952000D02*
X206958000Y-36152001D01*
D10*
X211858000Y-36552000D02*
X216658000Y-36552000D01*
D13*
X206808000Y-38252000D02*
X209258000Y-38252000D01*
D12*
X214858000Y-34752000D02*
X208158000Y-34752000D01*
D15*
X216158000Y-33552000D02*
X216158000Y-36052000D01*
D10*
X206358000Y-34852000D02*
X206358000Y-35602000D01*
X206608000Y-34002000D02*
X206608000Y-38452000D01*
D16*
X216508000Y-33152000D02*
X215258000Y-33152000D01*
D10*
X206608000Y-38452000D02*
X209638000Y-38452000D01*
X216638000Y-35552000D02*
X216638000Y-33302000D01*
X216658000Y-32952000D02*
X208457999Y-32952000D01*
X206358000Y-35602000D02*
X206558000Y-35602000D01*
X216658000Y-36552000D02*
X216658000Y-32952000D01*
D13*
X216458000Y-36302000D02*
X215158000Y-36252000D01*
D14*
X208088000Y-34452000D02*
X208088000Y-36692000D01*
D15*
X211458000Y-36152000D02*
G75*
G03*
X209241682Y-38030529I-65001J-2169999D01*
G01*
D10*
X208457999Y-32951999D02*
G75*
G03*
X206358000Y-34852001I-100000J-1999999D01*
G01*
X211858000Y-36552000D02*
G75*
G03*
X209641682Y-38430529I-65001J-2169999D01*
G01*
X230908000Y-36552000D02*
X235708000Y-36552000D01*
D18*
X226008000Y-37952000D02*
X226008000Y-36152001D01*
D10*
X235688000Y-35552000D02*
X235688000Y-33302000D01*
D17*
X225508000Y-35502000D02*
X225508000Y-34852000D01*
D10*
X225408000Y-35602000D02*
X225608000Y-35602000D01*
X225408000Y-34852000D02*
X225408000Y-35602000D01*
X235708000Y-32952000D02*
X227507999Y-32952000D01*
D13*
X235508000Y-36302000D02*
X234208000Y-36252000D01*
D15*
X235208000Y-33552000D02*
X235208000Y-36052000D01*
D12*
X233908000Y-34752000D02*
X227208000Y-34752000D01*
D14*
X227138000Y-34452000D02*
X227138000Y-36692000D01*
D16*
X235558000Y-33152000D02*
X234308000Y-33152000D01*
D10*
X235708000Y-36552000D02*
X235708000Y-32952000D01*
X225658000Y-34002000D02*
X225658000Y-38452000D01*
D13*
X225858000Y-38252000D02*
X228308000Y-38252000D01*
D10*
X225658000Y-38452000D02*
X228688000Y-38452000D01*
D15*
X230508000Y-36152000D02*
G75*
G03*
X228291682Y-38030529I-65001J-2169999D01*
G01*
D10*
X230908000Y-36552000D02*
G75*
G03*
X228691682Y-38430529I-65001J-2169999D01*
G01*
X227507999Y-32951999D02*
G75*
G03*
X225408000Y-34852001I-100000J-1999999D01*
G01*
D16*
X254608000Y-33152000D02*
X253358000Y-33152000D01*
D14*
X246188000Y-34452000D02*
X246188000Y-36692000D01*
D10*
X244458000Y-35602000D02*
X244658000Y-35602000D01*
X254738000Y-35552000D02*
X254738000Y-33302000D01*
X244458000Y-34852000D02*
X244458000Y-35602000D01*
D15*
X254258000Y-33552000D02*
X254258000Y-36052000D01*
D10*
X254758000Y-36552000D02*
X254758000Y-32952000D01*
D13*
X254558000Y-36302000D02*
X253258000Y-36252000D01*
D18*
X245058000Y-37952000D02*
X245058000Y-36152001D01*
D10*
X249958000Y-36552000D02*
X254758000Y-36552000D01*
X254758000Y-32952000D02*
X246557999Y-32952000D01*
D17*
X244558000Y-35502000D02*
X244558000Y-34852000D01*
D10*
X244708000Y-34002000D02*
X244708000Y-38452000D01*
D12*
X252958000Y-34752000D02*
X246258000Y-34752000D01*
D10*
X244708000Y-38452000D02*
X247738000Y-38452000D01*
D13*
X244908000Y-38252000D02*
X247358000Y-38252000D01*
D15*
X249558000Y-36152000D02*
G75*
G03*
X247341682Y-38030529I-65001J-2169999D01*
G01*
D10*
X249958000Y-36552000D02*
G75*
G03*
X247741682Y-38430529I-65001J-2169999D01*
G01*
X246557999Y-32951999D02*
G75*
G03*
X244458000Y-34852001I-100000J-1999999D01*
G01*
D18*
X264108000Y-37952000D02*
X264108000Y-36152001D01*
D10*
X269008000Y-36552000D02*
X273808000Y-36552000D01*
X263758000Y-38452000D02*
X266788000Y-38452000D01*
X263758000Y-34002000D02*
X263758000Y-38452000D01*
D13*
X273608000Y-36302000D02*
X272308000Y-36252000D01*
D10*
X273808000Y-32952000D02*
X265607999Y-32952000D01*
X273788000Y-35552000D02*
X273788000Y-33302000D01*
D13*
X263958000Y-38252000D02*
X266408000Y-38252000D01*
D15*
X273308000Y-33552000D02*
X273308000Y-36052000D01*
D12*
X272008000Y-34752000D02*
X265308000Y-34752000D01*
D10*
X273808000Y-36552000D02*
X273808000Y-32952000D01*
X263508000Y-35602000D02*
X263708000Y-35602000D01*
D16*
X273658000Y-33152000D02*
X272408000Y-33152000D01*
D17*
X263608000Y-35502000D02*
X263608000Y-34852000D01*
D10*
X263508000Y-34852000D02*
X263508000Y-35602000D01*
D14*
X265238000Y-34452000D02*
X265238000Y-36692000D01*
D15*
X268608000Y-36152000D02*
G75*
G03*
X266391682Y-38030529I-65001J-2169999D01*
G01*
D10*
X269008000Y-36552000D02*
G75*
G03*
X266791682Y-38430529I-65001J-2169999D01*
G01*
X265607999Y-32951999D02*
G75*
G03*
X263508000Y-34852001I-100000J-1999999D01*
G01*
X292858000Y-32952000D02*
X284657999Y-32952000D01*
D13*
X283008000Y-38252000D02*
X285458000Y-38252000D01*
D17*
X282658000Y-35502000D02*
X282658000Y-34852000D01*
D13*
X292658000Y-36302000D02*
X291358000Y-36252000D01*
D10*
X282808000Y-34002000D02*
X282808000Y-38452000D01*
X288058000Y-36552000D02*
X292858000Y-36552000D01*
D14*
X284288000Y-34452000D02*
X284288000Y-36692000D01*
D18*
X283158000Y-37952000D02*
X283158000Y-36152001D01*
D12*
X291058000Y-34752000D02*
X284358000Y-34752000D01*
D10*
X282558000Y-35602000D02*
X282758000Y-35602000D01*
X292838000Y-35552000D02*
X292838000Y-33302000D01*
X282558000Y-34852000D02*
X282558000Y-35602000D01*
X292858000Y-36552000D02*
X292858000Y-32952000D01*
D16*
X292708000Y-33152000D02*
X291458000Y-33152000D01*
D15*
X292358000Y-33552000D02*
X292358000Y-36052000D01*
D10*
X282808000Y-38452000D02*
X285838000Y-38452000D01*
X284657999Y-32951999D02*
G75*
G03*
X282558000Y-34852001I-100000J-1999999D01*
G01*
X288058000Y-36552000D02*
G75*
G03*
X285841682Y-38430529I-65001J-2169999D01*
G01*
D15*
X287658000Y-36152000D02*
G75*
G03*
X285441682Y-38030529I-65001J-2169999D01*
G01*
D10*
X301608000Y-35602000D02*
X301808000Y-35602000D01*
X301858000Y-34002000D02*
X301858000Y-38452000D01*
X307108000Y-36552000D02*
X311908000Y-36552000D01*
D14*
X303338000Y-34452000D02*
X303338000Y-36692000D01*
D17*
X301708000Y-35502000D02*
X301708000Y-34852000D01*
D10*
X301858000Y-38452000D02*
X304888000Y-38452000D01*
X301608000Y-34852000D02*
X301608000Y-35602000D01*
D13*
X311708000Y-36302000D02*
X310408000Y-36252000D01*
D12*
X310108000Y-34752000D02*
X303408000Y-34752000D01*
D16*
X311758000Y-33152000D02*
X310508000Y-33152000D01*
D10*
X311888000Y-35552000D02*
X311888000Y-33302000D01*
X311908000Y-32952000D02*
X303707999Y-32952000D01*
X311908000Y-36552000D02*
X311908000Y-32952000D01*
D13*
X302058000Y-38252000D02*
X304508000Y-38252000D01*
D18*
X302208000Y-37952000D02*
X302208000Y-36152001D01*
D15*
X311408000Y-33552000D02*
X311408000Y-36052000D01*
D10*
X307108000Y-36552000D02*
G75*
G03*
X304891682Y-38430529I-65001J-2169999D01*
G01*
X303707999Y-32951999D02*
G75*
G03*
X301608000Y-34852001I-100000J-1999999D01*
G01*
D15*
X306708000Y-36152000D02*
G75*
G03*
X304491682Y-38030529I-65001J-2169999D01*
G01*
D10*
X63733000Y-57502000D02*
X66763000Y-57502000D01*
X73783000Y-55602000D02*
X73783000Y-52002000D01*
X63733000Y-53052000D02*
X63733000Y-57502000D01*
X68983000Y-55602000D02*
X73783000Y-55602000D01*
D13*
X63933000Y-57302000D02*
X66383000Y-57302000D01*
D14*
X65213000Y-53502000D02*
X65213000Y-55742000D01*
D18*
X64083000Y-57002000D02*
X64083000Y-55202001D01*
D13*
X73583000Y-55352000D02*
X72283000Y-55302000D01*
D15*
X73283000Y-52602000D02*
X73283000Y-55102000D01*
D16*
X73633000Y-52202000D02*
X72383000Y-52202000D01*
D10*
X73763000Y-54602000D02*
X73763000Y-52352000D01*
X73783000Y-52002000D02*
X65582999Y-52002000D01*
X63483000Y-54652000D02*
X63683000Y-54652000D01*
D17*
X63583000Y-54552000D02*
X63583000Y-53902000D01*
D12*
X71983000Y-53802000D02*
X65283000Y-53802000D01*
D10*
X63483000Y-53902000D02*
X63483000Y-54652000D01*
D15*
X68583000Y-55202000D02*
G75*
G03*
X66366682Y-57080529I-65001J-2169999D01*
G01*
D10*
X65582999Y-52001999D02*
G75*
G03*
X63483000Y-53902001I-100000J-1999999D01*
G01*
X68983000Y-55602000D02*
G75*
G03*
X66766682Y-57480529I-65001J-2169999D01*
G01*
D13*
X92633000Y-55352000D02*
X91333000Y-55302000D01*
D10*
X82533000Y-53902000D02*
X82533000Y-54652000D01*
X92813000Y-54602000D02*
X92813000Y-52352000D01*
X82783000Y-53052000D02*
X82783000Y-57502000D01*
X88033000Y-55602000D02*
X92833000Y-55602000D01*
X82533000Y-54652000D02*
X82733000Y-54652000D01*
D16*
X92683000Y-52202000D02*
X91433000Y-52202000D01*
D10*
X92833000Y-52002000D02*
X84632999Y-52002000D01*
D14*
X84263000Y-53502000D02*
X84263000Y-55742000D01*
D13*
X82983000Y-57302000D02*
X85433000Y-57302000D01*
D17*
X82633000Y-54552000D02*
X82633000Y-53902000D01*
D10*
X82783000Y-57502000D02*
X85813000Y-57502000D01*
D12*
X91033000Y-53802000D02*
X84333000Y-53802000D01*
D10*
X92833000Y-55602000D02*
X92833000Y-52002000D01*
D15*
X92333000Y-52602000D02*
X92333000Y-55102000D01*
D18*
X83133000Y-57002000D02*
X83133000Y-55202001D01*
D10*
X84632999Y-52001999D02*
G75*
G03*
X82533000Y-53902001I-100000J-1999999D01*
G01*
D15*
X87633000Y-55202000D02*
G75*
G03*
X85416682Y-57080529I-65001J-2169999D01*
G01*
D10*
X88033000Y-55602000D02*
G75*
G03*
X85816682Y-57480529I-65001J-2169999D01*
G01*
X101583000Y-54652000D02*
X101783000Y-54652000D01*
X111883000Y-52002000D02*
X103682999Y-52002000D01*
D18*
X102183000Y-57002000D02*
X102183000Y-55202001D01*
D10*
X101833000Y-53052000D02*
X101833000Y-57502000D01*
X107083000Y-55602000D02*
X111883000Y-55602000D01*
D15*
X111383000Y-52602000D02*
X111383000Y-55102000D01*
D17*
X101683000Y-54552000D02*
X101683000Y-53902000D01*
D10*
X111863000Y-54602000D02*
X111863000Y-52352000D01*
X111883000Y-55602000D02*
X111883000Y-52002000D01*
D14*
X103313000Y-53502000D02*
X103313000Y-55742000D01*
D13*
X102033000Y-57302000D02*
X104483000Y-57302000D01*
D10*
X101583000Y-53902000D02*
X101583000Y-54652000D01*
X101833000Y-57502000D02*
X104863000Y-57502000D01*
D16*
X111733000Y-52202000D02*
X110483000Y-52202000D01*
D13*
X111683000Y-55352000D02*
X110383000Y-55302000D01*
D12*
X110083000Y-53802000D02*
X103383000Y-53802000D01*
D10*
X107083000Y-55602000D02*
G75*
G03*
X104866682Y-57480529I-65001J-2169999D01*
G01*
X103682999Y-52001999D02*
G75*
G03*
X101583000Y-53902001I-100000J-1999999D01*
G01*
D15*
X106683000Y-55202000D02*
G75*
G03*
X104466682Y-57080529I-65001J-2169999D01*
G01*
D12*
X129133000Y-53802000D02*
X122433000Y-53802000D01*
D18*
X121233000Y-57002000D02*
X121233000Y-55202001D01*
D13*
X130733000Y-55352000D02*
X129433000Y-55302000D01*
D14*
X122363000Y-53502000D02*
X122363000Y-55742000D01*
D10*
X126133000Y-55602000D02*
X130933000Y-55602000D01*
D16*
X130783000Y-52202000D02*
X129533000Y-52202000D01*
D17*
X120733000Y-54552000D02*
X120733000Y-53902000D01*
D13*
X121083000Y-57302000D02*
X123533000Y-57302000D01*
D10*
X120633000Y-54652000D02*
X120833000Y-54652000D01*
D15*
X130433000Y-52602000D02*
X130433000Y-55102000D01*
D10*
X120883000Y-53052000D02*
X120883000Y-57502000D01*
X120633000Y-53902000D02*
X120633000Y-54652000D01*
X130933000Y-52002000D02*
X122732999Y-52002000D01*
X130913000Y-54602000D02*
X130913000Y-52352000D01*
X130933000Y-55602000D02*
X130933000Y-52002000D01*
X120883000Y-57502000D02*
X123913000Y-57502000D01*
X126133000Y-55602000D02*
G75*
G03*
X123916682Y-57480529I-65001J-2169999D01*
G01*
D15*
X125733000Y-55202000D02*
G75*
G03*
X123516682Y-57080529I-65001J-2169999D01*
G01*
D10*
X122732999Y-52001999D02*
G75*
G03*
X120633000Y-53902001I-100000J-1999999D01*
G01*
X149983000Y-55602000D02*
X149983000Y-52002000D01*
X139683000Y-53902000D02*
X139683000Y-54652000D01*
D13*
X149783000Y-55352000D02*
X148483000Y-55302000D01*
D14*
X141413000Y-53502000D02*
X141413000Y-55742000D01*
D10*
X139933000Y-53052000D02*
X139933000Y-57502000D01*
D12*
X148183000Y-53802000D02*
X141483000Y-53802000D01*
D13*
X140133000Y-57302000D02*
X142583000Y-57302000D01*
D15*
X149483000Y-52602000D02*
X149483000Y-55102000D01*
D16*
X149833000Y-52202000D02*
X148583000Y-52202000D01*
D10*
X139933000Y-57502000D02*
X142963000Y-57502000D01*
X149983000Y-52002000D02*
X141782999Y-52002000D01*
D17*
X139783000Y-54552000D02*
X139783000Y-53902000D01*
D10*
X145183000Y-55602000D02*
X149983000Y-55602000D01*
X139683000Y-54652000D02*
X139883000Y-54652000D01*
D18*
X140283000Y-57002000D02*
X140283000Y-55202001D01*
D10*
X149963000Y-54602000D02*
X149963000Y-52352000D01*
X145183000Y-55602000D02*
G75*
G03*
X142966682Y-57480529I-65001J-2169999D01*
G01*
D15*
X144783000Y-55202000D02*
G75*
G03*
X142566682Y-57080529I-65001J-2169999D01*
G01*
D10*
X141782999Y-52001999D02*
G75*
G03*
X139683000Y-53902001I-100000J-1999999D01*
G01*
D13*
X168833000Y-55352000D02*
X167533000Y-55302000D01*
D10*
X169033000Y-55602000D02*
X169033000Y-52002000D01*
D13*
X159183000Y-57302000D02*
X161633000Y-57302000D01*
D10*
X158983000Y-53052000D02*
X158983000Y-57502000D01*
D16*
X168883000Y-52202000D02*
X167633000Y-52202000D01*
D14*
X160463000Y-53502000D02*
X160463000Y-55742000D01*
D10*
X158733000Y-53902000D02*
X158733000Y-54652000D01*
X169013000Y-54602000D02*
X169013000Y-52352000D01*
D15*
X168533000Y-52602000D02*
X168533000Y-55102000D01*
D18*
X159333000Y-57002000D02*
X159333000Y-55202001D01*
D10*
X158983000Y-57502000D02*
X162013000Y-57502000D01*
X164233000Y-55602000D02*
X169033000Y-55602000D01*
D12*
X167233000Y-53802000D02*
X160533000Y-53802000D01*
D10*
X158733000Y-54652000D02*
X158933000Y-54652000D01*
X169033000Y-52002000D02*
X160832999Y-52002000D01*
D17*
X158833000Y-54552000D02*
X158833000Y-53902000D01*
D10*
X164233000Y-55602000D02*
G75*
G03*
X162016682Y-57480529I-65001J-2169999D01*
G01*
X160832999Y-52001999D02*
G75*
G03*
X158733000Y-53902001I-100000J-1999999D01*
G01*
D15*
X163833000Y-55202000D02*
G75*
G03*
X161616682Y-57080529I-65001J-2169999D01*
G01*
D13*
X178233000Y-57302000D02*
X180683000Y-57302000D01*
D17*
X177883000Y-54552000D02*
X177883000Y-53902000D01*
D15*
X187583000Y-52602000D02*
X187583000Y-55102000D01*
D10*
X188083000Y-55602000D02*
X188083000Y-52002000D01*
X178033000Y-53052000D02*
X178033000Y-57502000D01*
X183283000Y-55602000D02*
X188083000Y-55602000D01*
D14*
X179513000Y-53502000D02*
X179513000Y-55742000D01*
D10*
X188063000Y-54602000D02*
X188063000Y-52352000D01*
X177783000Y-53902000D02*
X177783000Y-54652000D01*
D12*
X186283000Y-53802000D02*
X179583000Y-53802000D01*
D13*
X187883000Y-55352000D02*
X186583000Y-55302000D01*
D16*
X187933000Y-52202000D02*
X186683000Y-52202000D01*
D10*
X178033000Y-57502000D02*
X181063000Y-57502000D01*
X177783000Y-54652000D02*
X177983000Y-54652000D01*
X188083000Y-52002000D02*
X179882999Y-52002000D01*
D18*
X178383000Y-57002000D02*
X178383000Y-55202001D01*
D10*
X179882999Y-52001999D02*
G75*
G03*
X177783000Y-53902001I-100000J-1999999D01*
G01*
X183283000Y-55602000D02*
G75*
G03*
X181066682Y-57480529I-65001J-2169999D01*
G01*
D15*
X182883000Y-55202000D02*
G75*
G03*
X180666682Y-57080529I-65001J-2169999D01*
G01*
D12*
X205333000Y-53802000D02*
X198633000Y-53802000D01*
D10*
X196833000Y-54652000D02*
X197033000Y-54652000D01*
D17*
X196933000Y-54552000D02*
X196933000Y-53902000D01*
D10*
X197083000Y-53052000D02*
X197083000Y-57502000D01*
X197083000Y-57502000D02*
X200113000Y-57502000D01*
X207113000Y-54602000D02*
X207113000Y-52352000D01*
D13*
X206933000Y-55352000D02*
X205633000Y-55302000D01*
D18*
X197433000Y-57002000D02*
X197433000Y-55202001D01*
D13*
X197283000Y-57302000D02*
X199733000Y-57302000D01*
D10*
X202333000Y-55602000D02*
X207133000Y-55602000D01*
X196833000Y-53902000D02*
X196833000Y-54652000D01*
X207133000Y-52002000D02*
X198932999Y-52002000D01*
D14*
X198563000Y-53502000D02*
X198563000Y-55742000D01*
D10*
X207133000Y-55602000D02*
X207133000Y-52002000D01*
D16*
X206983000Y-52202000D02*
X205733000Y-52202000D01*
D15*
X206633000Y-52602000D02*
X206633000Y-55102000D01*
D10*
X198932999Y-52001999D02*
G75*
G03*
X196833000Y-53902001I-100000J-1999999D01*
G01*
D15*
X201933000Y-55202000D02*
G75*
G03*
X199716682Y-57080529I-65001J-2169999D01*
G01*
D10*
X202333000Y-55602000D02*
G75*
G03*
X200116682Y-57480529I-65001J-2169999D01*
G01*
X226183000Y-52002000D02*
X217982999Y-52002000D01*
X226163000Y-54602000D02*
X226163000Y-52352000D01*
D17*
X215983000Y-54552000D02*
X215983000Y-53902000D01*
D13*
X216333000Y-57302000D02*
X218783000Y-57302000D01*
D10*
X226183000Y-55602000D02*
X226183000Y-52002000D01*
X215883000Y-54652000D02*
X216083000Y-54652000D01*
X215883000Y-53902000D02*
X215883000Y-54652000D01*
D13*
X225983000Y-55352000D02*
X224683000Y-55302000D01*
D12*
X224383000Y-53802000D02*
X217683000Y-53802000D01*
D16*
X226033000Y-52202000D02*
X224783000Y-52202000D01*
D10*
X216133000Y-53052000D02*
X216133000Y-57502000D01*
D14*
X217613000Y-53502000D02*
X217613000Y-55742000D01*
D18*
X216483000Y-57002000D02*
X216483000Y-55202001D01*
D10*
X216133000Y-57502000D02*
X219163000Y-57502000D01*
D15*
X225683000Y-52602000D02*
X225683000Y-55102000D01*
D10*
X221383000Y-55602000D02*
X226183000Y-55602000D01*
X217982999Y-52001999D02*
G75*
G03*
X215883000Y-53902001I-100000J-1999999D01*
G01*
D15*
X220983000Y-55202000D02*
G75*
G03*
X218766682Y-57080529I-65001J-2169999D01*
G01*
D10*
X221383000Y-55602000D02*
G75*
G03*
X219166682Y-57480529I-65001J-2169999D01*
G01*
X235183000Y-53052000D02*
X235183000Y-57502000D01*
D13*
X245033000Y-55352000D02*
X243733000Y-55302000D01*
D12*
X243433000Y-53802000D02*
X236733000Y-53802000D01*
D10*
X245233000Y-55602000D02*
X245233000Y-52002000D01*
D17*
X235033000Y-54552000D02*
X235033000Y-53902000D01*
D10*
X245213000Y-54602000D02*
X245213000Y-52352000D01*
X240433000Y-55602000D02*
X245233000Y-55602000D01*
D14*
X236663000Y-53502000D02*
X236663000Y-55742000D01*
D10*
X235183000Y-57502000D02*
X238213000Y-57502000D01*
D13*
X235383000Y-57302000D02*
X237833000Y-57302000D01*
D15*
X244733000Y-52602000D02*
X244733000Y-55102000D01*
D16*
X245083000Y-52202000D02*
X243833000Y-52202000D01*
D10*
X234933000Y-53902000D02*
X234933000Y-54652000D01*
X234933000Y-54652000D02*
X235133000Y-54652000D01*
D18*
X235533000Y-57002000D02*
X235533000Y-55202001D01*
D10*
X245233000Y-52002000D02*
X237032999Y-52002000D01*
D15*
X240033000Y-55202000D02*
G75*
G03*
X237816682Y-57080529I-65001J-2169999D01*
G01*
D10*
X237032999Y-52001999D02*
G75*
G03*
X234933000Y-53902001I-100000J-1999999D01*
G01*
X240433000Y-55602000D02*
G75*
G03*
X238216682Y-57480529I-65001J-2169999D01*
G01*
D17*
X254083000Y-54552000D02*
X254083000Y-53902000D01*
D15*
X263783000Y-52602000D02*
X263783000Y-55102000D01*
D18*
X254583000Y-57002000D02*
X254583000Y-55202001D01*
D12*
X262483000Y-53802000D02*
X255783000Y-53802000D01*
D10*
X253983000Y-53902000D02*
X253983000Y-54652000D01*
X264283000Y-52002000D02*
X256082999Y-52002000D01*
X264263000Y-54602000D02*
X264263000Y-52352000D01*
X264283000Y-55602000D02*
X264283000Y-52002000D01*
D14*
X255713000Y-53502000D02*
X255713000Y-55742000D01*
D10*
X254233000Y-57502000D02*
X257263000Y-57502000D01*
X254233000Y-53052000D02*
X254233000Y-57502000D01*
X259483000Y-55602000D02*
X264283000Y-55602000D01*
D13*
X254433000Y-57302000D02*
X256883000Y-57302000D01*
D10*
X253983000Y-54652000D02*
X254183000Y-54652000D01*
D16*
X264133000Y-52202000D02*
X262883000Y-52202000D01*
D13*
X264083000Y-55352000D02*
X262783000Y-55302000D01*
D15*
X259083000Y-55202000D02*
G75*
G03*
X256866682Y-57080529I-65001J-2169999D01*
G01*
D10*
X256082999Y-52001999D02*
G75*
G03*
X253983000Y-53902001I-100000J-1999999D01*
G01*
X259483000Y-55602000D02*
G75*
G03*
X257266682Y-57480529I-65001J-2169999D01*
G01*
X273033000Y-53902000D02*
X273033000Y-54652000D01*
X283313000Y-54602000D02*
X283313000Y-52352000D01*
D14*
X274763000Y-53502000D02*
X274763000Y-55742000D01*
D10*
X273033000Y-54652000D02*
X273233000Y-54652000D01*
D16*
X283183000Y-52202000D02*
X281933000Y-52202000D01*
D12*
X281533000Y-53802000D02*
X274833000Y-53802000D01*
D10*
X283333000Y-52002000D02*
X275132999Y-52002000D01*
X273283000Y-57502000D02*
X276313000Y-57502000D01*
D18*
X273633000Y-57002000D02*
X273633000Y-55202001D01*
D13*
X273483000Y-57302000D02*
X275933000Y-57302000D01*
D10*
X273283000Y-53052000D02*
X273283000Y-57502000D01*
X283333000Y-55602000D02*
X283333000Y-52002000D01*
D13*
X283133000Y-55352000D02*
X281833000Y-55302000D01*
D10*
X278533000Y-55602000D02*
X283333000Y-55602000D01*
D15*
X282833000Y-52602000D02*
X282833000Y-55102000D01*
D17*
X273133000Y-54552000D02*
X273133000Y-53902000D01*
D15*
X278133000Y-55202000D02*
G75*
G03*
X275916682Y-57080529I-65001J-2169999D01*
G01*
D10*
X275132999Y-52001999D02*
G75*
G03*
X273033000Y-53902001I-100000J-1999999D01*
G01*
X278533000Y-55602000D02*
G75*
G03*
X276316682Y-57480529I-65001J-2169999D01*
G01*
X68245500Y-72952000D02*
X68245500Y-73702000D01*
X68495500Y-76552000D02*
X71525500Y-76552000D01*
X68495500Y-72102000D02*
X68495500Y-76552000D01*
D16*
X78395500Y-71252000D02*
X77145500Y-71252000D01*
D10*
X78545500Y-74652000D02*
X78545500Y-71052000D01*
D17*
X68345500Y-73602000D02*
X68345500Y-72952000D01*
D10*
X78545500Y-71052000D02*
X70345499Y-71052000D01*
D15*
X78045500Y-71652000D02*
X78045500Y-74152000D01*
D10*
X78525500Y-73652000D02*
X78525500Y-71402000D01*
X73745500Y-74652000D02*
X78545500Y-74652000D01*
D12*
X76745500Y-72852000D02*
X70045500Y-72852000D01*
D10*
X68245500Y-73702000D02*
X68445500Y-73702000D01*
D13*
X78345500Y-74402000D02*
X77045500Y-74352000D01*
X68695500Y-76352000D02*
X71145500Y-76352000D01*
D14*
X69975500Y-72552000D02*
X69975500Y-74792000D01*
D18*
X68845500Y-76052000D02*
X68845500Y-74252001D01*
D10*
X70345499Y-71051999D02*
G75*
G03*
X68245500Y-72952001I-100000J-1999999D01*
G01*
X73745500Y-74652000D02*
G75*
G03*
X71529182Y-76530529I-65001J-2169999D01*
G01*
D15*
X73345500Y-74252000D02*
G75*
G03*
X71129182Y-76130529I-65001J-2169999D01*
G01*
D16*
X97445500Y-71252000D02*
X96195500Y-71252000D01*
D13*
X97395500Y-74402000D02*
X96095500Y-74352000D01*
D15*
X97095500Y-71652000D02*
X97095500Y-74152000D01*
D12*
X95795500Y-72852000D02*
X89095500Y-72852000D01*
D10*
X87295500Y-72952000D02*
X87295500Y-73702000D01*
X97575500Y-73652000D02*
X97575500Y-71402000D01*
X87545500Y-76552000D02*
X90575500Y-76552000D01*
X87295500Y-73702000D02*
X87495500Y-73702000D01*
X87545500Y-72102000D02*
X87545500Y-76552000D01*
X97595500Y-74652000D02*
X97595500Y-71052000D01*
D18*
X87895500Y-76052000D02*
X87895500Y-74252001D01*
D14*
X89025500Y-72552000D02*
X89025500Y-74792000D01*
D10*
X92795500Y-74652000D02*
X97595500Y-74652000D01*
D17*
X87395500Y-73602000D02*
X87395500Y-72952000D01*
D10*
X97595500Y-71052000D02*
X89395499Y-71052000D01*
D13*
X87745500Y-76352000D02*
X90195500Y-76352000D01*
D15*
X92395500Y-74252000D02*
G75*
G03*
X90179182Y-76130529I-65001J-2169999D01*
G01*
D10*
X89395499Y-71051999D02*
G75*
G03*
X87295500Y-72952001I-100000J-1999999D01*
G01*
X92795500Y-74652000D02*
G75*
G03*
X90579182Y-76530529I-65001J-2169999D01*
G01*
X116645500Y-74652000D02*
X116645500Y-71052000D01*
D12*
X114845500Y-72852000D02*
X108145500Y-72852000D01*
D10*
X106595500Y-72102000D02*
X106595500Y-76552000D01*
D18*
X106945500Y-76052000D02*
X106945500Y-74252001D01*
D17*
X106445500Y-73602000D02*
X106445500Y-72952000D01*
D13*
X106795500Y-76352000D02*
X109245500Y-76352000D01*
X116445500Y-74402000D02*
X115145500Y-74352000D01*
D10*
X106345500Y-72952000D02*
X106345500Y-73702000D01*
D16*
X116495500Y-71252000D02*
X115245500Y-71252000D01*
D10*
X116645500Y-71052000D02*
X108445499Y-71052000D01*
D14*
X108075500Y-72552000D02*
X108075500Y-74792000D01*
D10*
X106345500Y-73702000D02*
X106545500Y-73702000D01*
D15*
X116145500Y-71652000D02*
X116145500Y-74152000D01*
D10*
X106595500Y-76552000D02*
X109625500Y-76552000D01*
X111845500Y-74652000D02*
X116645500Y-74652000D01*
X116625500Y-73652000D02*
X116625500Y-71402000D01*
X108445499Y-71051999D02*
G75*
G03*
X106345500Y-72952001I-100000J-1999999D01*
G01*
X111845500Y-74652000D02*
G75*
G03*
X109629182Y-76530529I-65001J-2169999D01*
G01*
D15*
X111445500Y-74252000D02*
G75*
G03*
X109229182Y-76130529I-65001J-2169999D01*
G01*
D13*
X135495500Y-74402000D02*
X134195500Y-74352000D01*
D15*
X135195500Y-71652000D02*
X135195500Y-74152000D01*
D16*
X135545500Y-71252000D02*
X134295500Y-71252000D01*
D10*
X135695500Y-74652000D02*
X135695500Y-71052000D01*
X130895500Y-74652000D02*
X135695500Y-74652000D01*
X135695500Y-71052000D02*
X127495499Y-71052000D01*
X125645500Y-72102000D02*
X125645500Y-76552000D01*
D18*
X125995500Y-76052000D02*
X125995500Y-74252001D01*
D10*
X125645500Y-76552000D02*
X128675500Y-76552000D01*
D12*
X133895500Y-72852000D02*
X127195500Y-72852000D01*
D10*
X125395500Y-73702000D02*
X125595500Y-73702000D01*
X135675500Y-73652000D02*
X135675500Y-71402000D01*
D13*
X125845500Y-76352000D02*
X128295500Y-76352000D01*
D10*
X125395500Y-72952000D02*
X125395500Y-73702000D01*
D14*
X127125500Y-72552000D02*
X127125500Y-74792000D01*
D17*
X125495500Y-73602000D02*
X125495500Y-72952000D01*
D15*
X130495500Y-74252000D02*
G75*
G03*
X128279182Y-76130529I-65001J-2169999D01*
G01*
D10*
X127495499Y-71051999D02*
G75*
G03*
X125395500Y-72952001I-100000J-1999999D01*
G01*
X130895500Y-74652000D02*
G75*
G03*
X128679182Y-76530529I-65001J-2169999D01*
G01*
X149945500Y-74652000D02*
X154745500Y-74652000D01*
D14*
X146175500Y-72552000D02*
X146175500Y-74792000D01*
D10*
X144445500Y-72952000D02*
X144445500Y-73702000D01*
D18*
X145045500Y-76052000D02*
X145045500Y-74252001D01*
D10*
X154725500Y-73652000D02*
X154725500Y-71402000D01*
X154745500Y-74652000D02*
X154745500Y-71052000D01*
D13*
X144895500Y-76352000D02*
X147345500Y-76352000D01*
D10*
X144695500Y-76552000D02*
X147725500Y-76552000D01*
X154745500Y-71052000D02*
X146545499Y-71052000D01*
X144695500Y-72102000D02*
X144695500Y-76552000D01*
X144445500Y-73702000D02*
X144645500Y-73702000D01*
D16*
X154595500Y-71252000D02*
X153345500Y-71252000D01*
D12*
X152945500Y-72852000D02*
X146245500Y-72852000D01*
D15*
X154245500Y-71652000D02*
X154245500Y-74152000D01*
D17*
X144545500Y-73602000D02*
X144545500Y-72952000D01*
D13*
X154545500Y-74402000D02*
X153245500Y-74352000D01*
D10*
X149945500Y-74652000D02*
G75*
G03*
X147729182Y-76530529I-65001J-2169999D01*
G01*
X146545499Y-71051999D02*
G75*
G03*
X144445500Y-72952001I-100000J-1999999D01*
G01*
D15*
X149545500Y-74252000D02*
G75*
G03*
X147329182Y-76130529I-65001J-2169999D01*
G01*
D10*
X163495500Y-72952000D02*
X163495500Y-73702000D01*
D13*
X163945500Y-76352000D02*
X166395500Y-76352000D01*
D12*
X171995500Y-72852000D02*
X165295500Y-72852000D01*
D10*
X173775500Y-73652000D02*
X173775500Y-71402000D01*
X168995500Y-74652000D02*
X173795500Y-74652000D01*
X163495500Y-73702000D02*
X163695500Y-73702000D01*
X173795500Y-71052000D02*
X165595499Y-71052000D01*
X163745500Y-76552000D02*
X166775500Y-76552000D01*
D13*
X173595500Y-74402000D02*
X172295500Y-74352000D01*
D15*
X173295500Y-71652000D02*
X173295500Y-74152000D01*
D14*
X165225500Y-72552000D02*
X165225500Y-74792000D01*
D10*
X163745500Y-72102000D02*
X163745500Y-76552000D01*
D16*
X173645500Y-71252000D02*
X172395500Y-71252000D01*
D17*
X163595500Y-73602000D02*
X163595500Y-72952000D01*
D10*
X173795500Y-74652000D02*
X173795500Y-71052000D01*
D18*
X164095500Y-76052000D02*
X164095500Y-74252001D01*
D10*
X168995500Y-74652000D02*
G75*
G03*
X166779182Y-76530529I-65001J-2169999D01*
G01*
X165595499Y-71051999D02*
G75*
G03*
X163495500Y-72952001I-100000J-1999999D01*
G01*
D15*
X168595500Y-74252000D02*
G75*
G03*
X166379182Y-76130529I-65001J-2169999D01*
G01*
D10*
X182545500Y-73702000D02*
X182745500Y-73702000D01*
X182795500Y-72102000D02*
X182795500Y-76552000D01*
D13*
X182995500Y-76352000D02*
X185445500Y-76352000D01*
D16*
X192695500Y-71252000D02*
X191445500Y-71252000D01*
D14*
X184275500Y-72552000D02*
X184275500Y-74792000D01*
D18*
X183145500Y-76052000D02*
X183145500Y-74252001D01*
D10*
X192845500Y-74652000D02*
X192845500Y-71052000D01*
D13*
X192645500Y-74402000D02*
X191345500Y-74352000D01*
D10*
X182795500Y-76552000D02*
X185825500Y-76552000D01*
X182545500Y-72952000D02*
X182545500Y-73702000D01*
D12*
X191045500Y-72852000D02*
X184345500Y-72852000D01*
D10*
X188045500Y-74652000D02*
X192845500Y-74652000D01*
X192845500Y-71052000D02*
X184645499Y-71052000D01*
D17*
X182645500Y-73602000D02*
X182645500Y-72952000D01*
D15*
X192345500Y-71652000D02*
X192345500Y-74152000D01*
D10*
X192825500Y-73652000D02*
X192825500Y-71402000D01*
X188045500Y-74652000D02*
G75*
G03*
X185829182Y-76530529I-65001J-2169999D01*
G01*
X184645499Y-71051999D02*
G75*
G03*
X182545500Y-72952001I-100000J-1999999D01*
G01*
D15*
X187645500Y-74252000D02*
G75*
G03*
X185429182Y-76130529I-65001J-2169999D01*
G01*
D18*
X202195500Y-76052000D02*
X202195500Y-74252001D01*
D10*
X201595500Y-72952000D02*
X201595500Y-73702000D01*
D16*
X211745500Y-71252000D02*
X210495500Y-71252000D01*
D17*
X201695500Y-73602000D02*
X201695500Y-72952000D01*
D14*
X203325500Y-72552000D02*
X203325500Y-74792000D01*
D15*
X211395500Y-71652000D02*
X211395500Y-74152000D01*
D12*
X210095500Y-72852000D02*
X203395500Y-72852000D01*
D10*
X201845500Y-72102000D02*
X201845500Y-76552000D01*
X211875500Y-73652000D02*
X211875500Y-71402000D01*
X211895500Y-71052000D02*
X203695499Y-71052000D01*
X201595500Y-73702000D02*
X201795500Y-73702000D01*
X207095500Y-74652000D02*
X211895500Y-74652000D01*
X201845500Y-76552000D02*
X204875500Y-76552000D01*
X211895500Y-74652000D02*
X211895500Y-71052000D01*
D13*
X202045500Y-76352000D02*
X204495500Y-76352000D01*
X211695500Y-74402000D02*
X210395500Y-74352000D01*
D10*
X203695499Y-71051999D02*
G75*
G03*
X201595500Y-72952001I-100000J-1999999D01*
G01*
X207095500Y-74652000D02*
G75*
G03*
X204879182Y-76530529I-65001J-2169999D01*
G01*
D15*
X206695500Y-74252000D02*
G75*
G03*
X204479182Y-76130529I-65001J-2169999D01*
G01*
D18*
X221245500Y-76052000D02*
X221245500Y-74252001D01*
D13*
X221095500Y-76352000D02*
X223545500Y-76352000D01*
D12*
X229145500Y-72852000D02*
X222445500Y-72852000D01*
D10*
X226145500Y-74652000D02*
X230945500Y-74652000D01*
X230945500Y-71052000D02*
X222745499Y-71052000D01*
X220895500Y-76552000D02*
X223925500Y-76552000D01*
X230945500Y-74652000D02*
X230945500Y-71052000D01*
D17*
X220745500Y-73602000D02*
X220745500Y-72952000D01*
D10*
X230925500Y-73652000D02*
X230925500Y-71402000D01*
X220645500Y-73702000D02*
X220845500Y-73702000D01*
D14*
X222375500Y-72552000D02*
X222375500Y-74792000D01*
D10*
X220895500Y-72102000D02*
X220895500Y-76552000D01*
D15*
X230445500Y-71652000D02*
X230445500Y-74152000D01*
D16*
X230795500Y-71252000D02*
X229545500Y-71252000D01*
D10*
X220645500Y-72952000D02*
X220645500Y-73702000D01*
D13*
X230745500Y-74402000D02*
X229445500Y-74352000D01*
D15*
X225745500Y-74252000D02*
G75*
G03*
X223529182Y-76130529I-65001J-2169999D01*
G01*
D10*
X226145500Y-74652000D02*
G75*
G03*
X223929182Y-76530529I-65001J-2169999D01*
G01*
X222745499Y-71051999D02*
G75*
G03*
X220645500Y-72952001I-100000J-1999999D01*
G01*
X249995500Y-71052000D02*
X241795499Y-71052000D01*
X239695500Y-73702000D02*
X239895500Y-73702000D01*
D16*
X249845500Y-71252000D02*
X248595500Y-71252000D01*
D18*
X240295500Y-76052000D02*
X240295500Y-74252001D01*
D10*
X245195500Y-74652000D02*
X249995500Y-74652000D01*
D12*
X248195500Y-72852000D02*
X241495500Y-72852000D01*
D10*
X239695500Y-72952000D02*
X239695500Y-73702000D01*
D13*
X249795500Y-74402000D02*
X248495500Y-74352000D01*
D17*
X239795500Y-73602000D02*
X239795500Y-72952000D01*
D10*
X239945500Y-72102000D02*
X239945500Y-76552000D01*
X239945500Y-76552000D02*
X242975500Y-76552000D01*
D15*
X249495500Y-71652000D02*
X249495500Y-74152000D01*
D10*
X249975500Y-73652000D02*
X249975500Y-71402000D01*
X249995500Y-74652000D02*
X249995500Y-71052000D01*
D14*
X241425500Y-72552000D02*
X241425500Y-74792000D01*
D13*
X240145500Y-76352000D02*
X242595500Y-76352000D01*
D10*
X241795499Y-71051999D02*
G75*
G03*
X239695500Y-72952001I-100000J-1999999D01*
G01*
X245195500Y-74652000D02*
G75*
G03*
X242979182Y-76530529I-65001J-2169999D01*
G01*
D15*
X244795500Y-74252000D02*
G75*
G03*
X242579182Y-76130529I-65001J-2169999D01*
G01*
D14*
X260475500Y-72552000D02*
X260475500Y-74792000D01*
D10*
X269045500Y-74652000D02*
X269045500Y-71052000D01*
X264245500Y-74652000D02*
X269045500Y-74652000D01*
D13*
X259195500Y-76352000D02*
X261645500Y-76352000D01*
D10*
X258745500Y-73702000D02*
X258945500Y-73702000D01*
D18*
X259345500Y-76052000D02*
X259345500Y-74252001D01*
D10*
X258995500Y-72102000D02*
X258995500Y-76552000D01*
X269025500Y-73652000D02*
X269025500Y-71402000D01*
D15*
X268545500Y-71652000D02*
X268545500Y-74152000D01*
D10*
X269045500Y-71052000D02*
X260845499Y-71052000D01*
D13*
X268845500Y-74402000D02*
X267545500Y-74352000D01*
D17*
X258845500Y-73602000D02*
X258845500Y-72952000D01*
D10*
X258745500Y-72952000D02*
X258745500Y-73702000D01*
D12*
X267245500Y-72852000D02*
X260545500Y-72852000D01*
D16*
X268895500Y-71252000D02*
X267645500Y-71252000D01*
D10*
X258995500Y-76552000D02*
X262025500Y-76552000D01*
X260845499Y-71051999D02*
G75*
G03*
X258745500Y-72952001I-100000J-1999999D01*
G01*
X264245500Y-74652000D02*
G75*
G03*
X262029182Y-76530529I-65001J-2169999D01*
G01*
D15*
X263845500Y-74252000D02*
G75*
G03*
X261629182Y-76130529I-65001J-2169999D01*
G01*
D14*
X279525500Y-72552000D02*
X279525500Y-74792000D01*
D12*
X286295500Y-72852000D02*
X279595500Y-72852000D01*
D10*
X277795500Y-72952000D02*
X277795500Y-73702000D01*
X278045500Y-72102000D02*
X278045500Y-76552000D01*
D15*
X287595500Y-71652000D02*
X287595500Y-74152000D01*
D10*
X283295500Y-74652000D02*
X288095500Y-74652000D01*
X278045500Y-76552000D02*
X281075500Y-76552000D01*
X288095500Y-74652000D02*
X288095500Y-71052000D01*
D13*
X287895500Y-74402000D02*
X286595500Y-74352000D01*
D16*
X287945500Y-71252000D02*
X286695500Y-71252000D01*
D10*
X288095500Y-71052000D02*
X279895499Y-71052000D01*
X288075500Y-73652000D02*
X288075500Y-71402000D01*
X277795500Y-73702000D02*
X277995500Y-73702000D01*
D17*
X277895500Y-73602000D02*
X277895500Y-72952000D01*
D18*
X278395500Y-76052000D02*
X278395500Y-74252001D01*
D13*
X278245500Y-76352000D02*
X280695500Y-76352000D01*
D10*
X283295500Y-74652000D02*
G75*
G03*
X281079182Y-76530529I-65001J-2169999D01*
G01*
X279895499Y-71051999D02*
G75*
G03*
X277795500Y-72952001I-100000J-1999999D01*
G01*
D15*
X282895500Y-74252000D02*
G75*
G03*
X280679182Y-76130529I-65001J-2169999D01*
G01*
D10*
X83288000Y-92702000D02*
X83288000Y-90452000D01*
D12*
X81508000Y-91902000D02*
X74808000Y-91902000D01*
D10*
X73258000Y-91152000D02*
X73258000Y-95602000D01*
D16*
X83158000Y-90302000D02*
X81908000Y-90302000D01*
D10*
X83308000Y-90102000D02*
X75107999Y-90102000D01*
D13*
X83108000Y-93452000D02*
X81808000Y-93402000D01*
D15*
X82808000Y-90702000D02*
X82808000Y-93202000D01*
D10*
X73258000Y-95602000D02*
X76288000Y-95602000D01*
D17*
X73108000Y-92652000D02*
X73108000Y-92002000D01*
D10*
X78508000Y-93702000D02*
X83308000Y-93702000D01*
D14*
X74738000Y-91602000D02*
X74738000Y-93842000D01*
D18*
X73608000Y-95102000D02*
X73608000Y-93302001D01*
D10*
X73008000Y-92752000D02*
X73208000Y-92752000D01*
X83308000Y-93702000D02*
X83308000Y-90102000D01*
X73008000Y-92002000D02*
X73008000Y-92752000D01*
D13*
X73458000Y-95402000D02*
X75908000Y-95402000D01*
D10*
X78508000Y-93702000D02*
G75*
G03*
X76291682Y-95580529I-65001J-2169999D01*
G01*
D15*
X78108000Y-93302000D02*
G75*
G03*
X75891682Y-95180529I-65001J-2169999D01*
G01*
D10*
X75107999Y-90101999D02*
G75*
G03*
X73008000Y-92002001I-100000J-1999999D01*
G01*
X102358000Y-93702000D02*
X102358000Y-90102000D01*
X97558000Y-93702000D02*
X102358000Y-93702000D01*
X102338000Y-92702000D02*
X102338000Y-90452000D01*
D14*
X93788000Y-91602000D02*
X93788000Y-93842000D01*
D18*
X92658000Y-95102000D02*
X92658000Y-93302001D01*
D10*
X92308000Y-95602000D02*
X95338000Y-95602000D01*
X92058000Y-92002000D02*
X92058000Y-92752000D01*
X92058000Y-92752000D02*
X92258000Y-92752000D01*
X92308000Y-91152000D02*
X92308000Y-95602000D01*
X102358000Y-90102000D02*
X94157999Y-90102000D01*
D13*
X102158000Y-93452000D02*
X100858000Y-93402000D01*
D17*
X92158000Y-92652000D02*
X92158000Y-92002000D01*
D16*
X102208000Y-90302000D02*
X100958000Y-90302000D01*
D15*
X101858000Y-90702000D02*
X101858000Y-93202000D01*
D13*
X92508000Y-95402000D02*
X94958000Y-95402000D01*
D12*
X100558000Y-91902000D02*
X93858000Y-91902000D01*
D10*
X97558000Y-93702000D02*
G75*
G03*
X95341682Y-95580529I-65001J-2169999D01*
G01*
X94157999Y-90101999D02*
G75*
G03*
X92058000Y-92002001I-100000J-1999999D01*
G01*
D15*
X97158000Y-93302000D02*
G75*
G03*
X94941682Y-95180529I-65001J-2169999D01*
G01*
D10*
X121408000Y-90102000D02*
X113207999Y-90102000D01*
D12*
X119608000Y-91902000D02*
X112908000Y-91902000D01*
D10*
X111108000Y-92002000D02*
X111108000Y-92752000D01*
X121408000Y-93702000D02*
X121408000Y-90102000D01*
D18*
X111708000Y-95102000D02*
X111708000Y-93302001D01*
D13*
X111558000Y-95402000D02*
X114008000Y-95402000D01*
X121208000Y-93452000D02*
X119908000Y-93402000D01*
D17*
X111208000Y-92652000D02*
X111208000Y-92002000D01*
D10*
X121388000Y-92702000D02*
X121388000Y-90452000D01*
D14*
X112838000Y-91602000D02*
X112838000Y-93842000D01*
D15*
X120908000Y-90702000D02*
X120908000Y-93202000D01*
D10*
X111108000Y-92752000D02*
X111308000Y-92752000D01*
X116608000Y-93702000D02*
X121408000Y-93702000D01*
X111358000Y-91152000D02*
X111358000Y-95602000D01*
D16*
X121258000Y-90302000D02*
X120008000Y-90302000D01*
D10*
X111358000Y-95602000D02*
X114388000Y-95602000D01*
X113207999Y-90101999D02*
G75*
G03*
X111108000Y-92002001I-100000J-1999999D01*
G01*
D15*
X116208000Y-93302000D02*
G75*
G03*
X113991682Y-95180529I-65001J-2169999D01*
G01*
D10*
X116608000Y-93702000D02*
G75*
G03*
X114391682Y-95580529I-65001J-2169999D01*
G01*
D16*
X140308000Y-90302000D02*
X139058000Y-90302000D01*
D10*
X130158000Y-92002000D02*
X130158000Y-92752000D01*
D17*
X130258000Y-92652000D02*
X130258000Y-92002000D01*
D10*
X130158000Y-92752000D02*
X130358000Y-92752000D01*
D13*
X140258000Y-93452000D02*
X138958000Y-93402000D01*
D10*
X140438000Y-92702000D02*
X140438000Y-90452000D01*
X140458000Y-93702000D02*
X140458000Y-90102000D01*
D13*
X130608000Y-95402000D02*
X133058000Y-95402000D01*
D10*
X135658000Y-93702000D02*
X140458000Y-93702000D01*
X130408000Y-91152000D02*
X130408000Y-95602000D01*
D15*
X139958000Y-90702000D02*
X139958000Y-93202000D01*
D12*
X138658000Y-91902000D02*
X131958000Y-91902000D01*
D10*
X140458000Y-90102000D02*
X132257999Y-90102000D01*
D18*
X130758000Y-95102000D02*
X130758000Y-93302001D01*
D14*
X131888000Y-91602000D02*
X131888000Y-93842000D01*
D10*
X130408000Y-95602000D02*
X133438000Y-95602000D01*
D15*
X135258000Y-93302000D02*
G75*
G03*
X133041682Y-95180529I-65001J-2169999D01*
G01*
D10*
X135658000Y-93702000D02*
G75*
G03*
X133441682Y-95580529I-65001J-2169999D01*
G01*
X132257999Y-90101999D02*
G75*
G03*
X130158000Y-92002001I-100000J-1999999D01*
G01*
X159508000Y-93702000D02*
X159508000Y-90102000D01*
X154708000Y-93702000D02*
X159508000Y-93702000D01*
X159508000Y-90102000D02*
X151307999Y-90102000D01*
D16*
X159358000Y-90302000D02*
X158108000Y-90302000D01*
D10*
X149458000Y-95602000D02*
X152488000Y-95602000D01*
X149208000Y-92002000D02*
X149208000Y-92752000D01*
D17*
X149308000Y-92652000D02*
X149308000Y-92002000D01*
D18*
X149808000Y-95102000D02*
X149808000Y-93302001D01*
D14*
X150938000Y-91602000D02*
X150938000Y-93842000D01*
D13*
X159308000Y-93452000D02*
X158008000Y-93402000D01*
D15*
X159008000Y-90702000D02*
X159008000Y-93202000D01*
D10*
X159488000Y-92702000D02*
X159488000Y-90452000D01*
D13*
X149658000Y-95402000D02*
X152108000Y-95402000D01*
D12*
X157708000Y-91902000D02*
X151008000Y-91902000D01*
D10*
X149458000Y-91152000D02*
X149458000Y-95602000D01*
X149208000Y-92752000D02*
X149408000Y-92752000D01*
D15*
X154308000Y-93302000D02*
G75*
G03*
X152091682Y-95180529I-65001J-2169999D01*
G01*
D10*
X151307999Y-90101999D02*
G75*
G03*
X149208000Y-92002001I-100000J-1999999D01*
G01*
X154708000Y-93702000D02*
G75*
G03*
X152491682Y-95580529I-65001J-2169999D01*
G01*
D15*
X178058000Y-90702000D02*
X178058000Y-93202000D01*
D13*
X178358000Y-93452000D02*
X177058000Y-93402000D01*
D10*
X178538000Y-92702000D02*
X178538000Y-90452000D01*
X168508000Y-91152000D02*
X168508000Y-95602000D01*
D12*
X176758000Y-91902000D02*
X170058000Y-91902000D01*
D10*
X168258000Y-92752000D02*
X168458000Y-92752000D01*
X168258000Y-92002000D02*
X168258000Y-92752000D01*
D16*
X178408000Y-90302000D02*
X177158000Y-90302000D01*
D14*
X169988000Y-91602000D02*
X169988000Y-93842000D01*
D10*
X178558000Y-93702000D02*
X178558000Y-90102000D01*
X173758000Y-93702000D02*
X178558000Y-93702000D01*
X178558000Y-90102000D02*
X170357999Y-90102000D01*
D13*
X168708000Y-95402000D02*
X171158000Y-95402000D01*
D17*
X168358000Y-92652000D02*
X168358000Y-92002000D01*
D18*
X168858000Y-95102000D02*
X168858000Y-93302001D01*
D10*
X168508000Y-95602000D02*
X171538000Y-95602000D01*
X173758000Y-93702000D02*
G75*
G03*
X171541682Y-95580529I-65001J-2169999D01*
G01*
X170357999Y-90101999D02*
G75*
G03*
X168258000Y-92002001I-100000J-1999999D01*
G01*
D15*
X173358000Y-93302000D02*
G75*
G03*
X171141682Y-95180529I-65001J-2169999D01*
G01*
D10*
X187558000Y-95602000D02*
X190588000Y-95602000D01*
X192808000Y-93702000D02*
X197608000Y-93702000D01*
D13*
X187758000Y-95402000D02*
X190208000Y-95402000D01*
D14*
X189038000Y-91602000D02*
X189038000Y-93842000D01*
D18*
X187908000Y-95102000D02*
X187908000Y-93302001D01*
D10*
X187308000Y-92752000D02*
X187508000Y-92752000D01*
D15*
X197108000Y-90702000D02*
X197108000Y-93202000D01*
D16*
X197458000Y-90302000D02*
X196208000Y-90302000D01*
D10*
X197588000Y-92702000D02*
X197588000Y-90452000D01*
D17*
X187408000Y-92652000D02*
X187408000Y-92002000D01*
D10*
X197608000Y-90102000D02*
X189407999Y-90102000D01*
X187308000Y-92002000D02*
X187308000Y-92752000D01*
D13*
X197408000Y-93452000D02*
X196108000Y-93402000D01*
D10*
X187558000Y-91152000D02*
X187558000Y-95602000D01*
D12*
X195808000Y-91902000D02*
X189108000Y-91902000D01*
D10*
X197608000Y-93702000D02*
X197608000Y-90102000D01*
X192808000Y-93702000D02*
G75*
G03*
X190591682Y-95580529I-65001J-2169999D01*
G01*
X189407999Y-90101999D02*
G75*
G03*
X187308000Y-92002001I-100000J-1999999D01*
G01*
D15*
X192408000Y-93302000D02*
G75*
G03*
X190191682Y-95180529I-65001J-2169999D01*
G01*
D13*
X216458000Y-93452000D02*
X215158000Y-93402000D01*
D14*
X208088000Y-91602000D02*
X208088000Y-93842000D01*
D10*
X211858000Y-93702000D02*
X216658000Y-93702000D01*
X206358000Y-92752000D02*
X206558000Y-92752000D01*
D15*
X216158000Y-90702000D02*
X216158000Y-93202000D01*
D10*
X216658000Y-93702000D02*
X216658000Y-90102000D01*
X206608000Y-91152000D02*
X206608000Y-95602000D01*
D16*
X216508000Y-90302000D02*
X215258000Y-90302000D01*
D18*
X206958000Y-95102000D02*
X206958000Y-93302001D01*
D17*
X206458000Y-92652000D02*
X206458000Y-92002000D01*
D10*
X216638000Y-92702000D02*
X216638000Y-90452000D01*
X216658000Y-90102000D02*
X208457999Y-90102000D01*
X206358000Y-92002000D02*
X206358000Y-92752000D01*
X206608000Y-95602000D02*
X209638000Y-95602000D01*
D13*
X206808000Y-95402000D02*
X209258000Y-95402000D01*
D12*
X214858000Y-91902000D02*
X208158000Y-91902000D01*
D10*
X211858000Y-93702000D02*
G75*
G03*
X209641682Y-95580529I-65001J-2169999D01*
G01*
X208457999Y-90101999D02*
G75*
G03*
X206358000Y-92002001I-100000J-1999999D01*
G01*
D15*
X211458000Y-93302000D02*
G75*
G03*
X209241682Y-95180529I-65001J-2169999D01*
G01*
D10*
X235708000Y-90102000D02*
X227507999Y-90102000D01*
D14*
X227138000Y-91602000D02*
X227138000Y-93842000D01*
D10*
X235688000Y-92702000D02*
X235688000Y-90452000D01*
X230908000Y-93702000D02*
X235708000Y-93702000D01*
D13*
X235508000Y-93452000D02*
X234208000Y-93402000D01*
D10*
X225658000Y-95602000D02*
X228688000Y-95602000D01*
D16*
X235558000Y-90302000D02*
X234308000Y-90302000D01*
D10*
X225658000Y-91152000D02*
X225658000Y-95602000D01*
X235708000Y-93702000D02*
X235708000Y-90102000D01*
D18*
X226008000Y-95102000D02*
X226008000Y-93302001D01*
D10*
X225408000Y-92002000D02*
X225408000Y-92752000D01*
D15*
X235208000Y-90702000D02*
X235208000Y-93202000D01*
D13*
X225858000Y-95402000D02*
X228308000Y-95402000D01*
D12*
X233908000Y-91902000D02*
X227208000Y-91902000D01*
D10*
X225408000Y-92752000D02*
X225608000Y-92752000D01*
D17*
X225508000Y-92652000D02*
X225508000Y-92002000D01*
D10*
X227507999Y-90101999D02*
G75*
G03*
X225408000Y-92002001I-100000J-1999999D01*
G01*
D15*
X230508000Y-93302000D02*
G75*
G03*
X228291682Y-95180529I-65001J-2169999D01*
G01*
D10*
X230908000Y-93702000D02*
G75*
G03*
X228691682Y-95580529I-65001J-2169999D01*
G01*
D13*
X244908000Y-95402000D02*
X247358000Y-95402000D01*
D10*
X244708000Y-95602000D02*
X247738000Y-95602000D01*
D12*
X252958000Y-91902000D02*
X246258000Y-91902000D01*
D13*
X254558000Y-93452000D02*
X253258000Y-93402000D01*
D10*
X254758000Y-90102000D02*
X246557999Y-90102000D01*
X244458000Y-92002000D02*
X244458000Y-92752000D01*
X249958000Y-93702000D02*
X254758000Y-93702000D01*
X254738000Y-92702000D02*
X254738000Y-90452000D01*
X254758000Y-93702000D02*
X254758000Y-90102000D01*
X244458000Y-92752000D02*
X244658000Y-92752000D01*
D16*
X254608000Y-90302000D02*
X253358000Y-90302000D01*
D14*
X246188000Y-91602000D02*
X246188000Y-93842000D01*
D18*
X245058000Y-95102000D02*
X245058000Y-93302001D01*
D15*
X254258000Y-90702000D02*
X254258000Y-93202000D01*
D10*
X244708000Y-91152000D02*
X244708000Y-95602000D01*
D17*
X244558000Y-92652000D02*
X244558000Y-92002000D01*
D10*
X246557999Y-90101999D02*
G75*
G03*
X244458000Y-92002001I-100000J-1999999D01*
G01*
X249958000Y-93702000D02*
G75*
G03*
X247741682Y-95580529I-65001J-2169999D01*
G01*
D15*
X249558000Y-93302000D02*
G75*
G03*
X247341682Y-95180529I-65001J-2169999D01*
G01*
D14*
X265238000Y-91602000D02*
X265238000Y-93842000D01*
D12*
X272008000Y-91902000D02*
X265308000Y-91902000D01*
D10*
X263758000Y-95602000D02*
X266788000Y-95602000D01*
X273808000Y-90102000D02*
X265607999Y-90102000D01*
D13*
X263958000Y-95402000D02*
X266408000Y-95402000D01*
D10*
X273788000Y-92702000D02*
X273788000Y-90452000D01*
X263508000Y-92752000D02*
X263708000Y-92752000D01*
D17*
X263608000Y-92652000D02*
X263608000Y-92002000D01*
D13*
X273608000Y-93452000D02*
X272308000Y-93402000D01*
D10*
X263508000Y-92002000D02*
X263508000Y-92752000D01*
X273808000Y-93702000D02*
X273808000Y-90102000D01*
X263758000Y-91152000D02*
X263758000Y-95602000D01*
D16*
X273658000Y-90302000D02*
X272408000Y-90302000D01*
D18*
X264108000Y-95102000D02*
X264108000Y-93302001D01*
D10*
X269008000Y-93702000D02*
X273808000Y-93702000D01*
D15*
X273308000Y-90702000D02*
X273308000Y-93202000D01*
X268608000Y-93302000D02*
G75*
G03*
X266391682Y-95180529I-65001J-2169999D01*
G01*
D10*
X269008000Y-93702000D02*
G75*
G03*
X266791682Y-95580529I-65001J-2169999D01*
G01*
X265607999Y-90101999D02*
G75*
G03*
X263508000Y-92002001I-100000J-1999999D01*
G01*
X292858000Y-93702000D02*
X292858000Y-90102000D01*
D13*
X292658000Y-93452000D02*
X291358000Y-93402000D01*
D10*
X282558000Y-92002000D02*
X282558000Y-92752000D01*
X288058000Y-93702000D02*
X292858000Y-93702000D01*
X292838000Y-92702000D02*
X292838000Y-90452000D01*
X282558000Y-92752000D02*
X282758000Y-92752000D01*
D13*
X283008000Y-95402000D02*
X285458000Y-95402000D01*
D18*
X283158000Y-95102000D02*
X283158000Y-93302001D01*
D16*
X292708000Y-90302000D02*
X291458000Y-90302000D01*
D15*
X292358000Y-90702000D02*
X292358000Y-93202000D01*
D12*
X291058000Y-91902000D02*
X284358000Y-91902000D01*
D10*
X282808000Y-95602000D02*
X285838000Y-95602000D01*
D14*
X284288000Y-91602000D02*
X284288000Y-93842000D01*
D10*
X292858000Y-90102000D02*
X284657999Y-90102000D01*
D17*
X282658000Y-92652000D02*
X282658000Y-92002000D01*
D10*
X282808000Y-91152000D02*
X282808000Y-95602000D01*
X284657999Y-90101999D02*
G75*
G03*
X282558000Y-92002001I-100000J-1999999D01*
G01*
X288058000Y-93702000D02*
G75*
G03*
X285841682Y-95580529I-65001J-2169999D01*
G01*
D15*
X287658000Y-93302000D02*
G75*
G03*
X285441682Y-95180529I-65001J-2169999D01*
G01*
D10*
X307108000Y-93702000D02*
X311908000Y-93702000D01*
D17*
X301708000Y-92652000D02*
X301708000Y-92002000D01*
D10*
X301608000Y-92002000D02*
X301608000Y-92752000D01*
D16*
X311758000Y-90302000D02*
X310508000Y-90302000D01*
D10*
X311908000Y-90102000D02*
X303707999Y-90102000D01*
D12*
X310108000Y-91902000D02*
X303408000Y-91902000D01*
D14*
X303338000Y-91602000D02*
X303338000Y-93842000D01*
D10*
X301858000Y-95602000D02*
X304888000Y-95602000D01*
D18*
X302208000Y-95102000D02*
X302208000Y-93302001D01*
D10*
X301608000Y-92752000D02*
X301808000Y-92752000D01*
D13*
X302058000Y-95402000D02*
X304508000Y-95402000D01*
X311708000Y-93452000D02*
X310408000Y-93402000D01*
D15*
X311408000Y-90702000D02*
X311408000Y-93202000D01*
D10*
X301858000Y-91152000D02*
X301858000Y-95602000D01*
X311908000Y-93702000D02*
X311908000Y-90102000D01*
X311888000Y-92702000D02*
X311888000Y-90452000D01*
X303707999Y-90101999D02*
G75*
G03*
X301608000Y-92002001I-100000J-1999999D01*
G01*
X307108000Y-93702000D02*
G75*
G03*
X304891682Y-95580529I-65001J-2169999D01*
G01*
D15*
X306708000Y-93302000D02*
G75*
G03*
X304491682Y-95180529I-65001J-2169999D01*
G01*
D13*
X45008000Y-112502000D02*
X43708000Y-112452000D01*
D10*
X45208000Y-109152000D02*
X37007999Y-109152000D01*
X35158000Y-114652000D02*
X38188000Y-114652000D01*
X35158000Y-110202000D02*
X35158000Y-114652000D01*
D12*
X43408000Y-110952000D02*
X36708000Y-110952000D01*
D16*
X45058000Y-109352000D02*
X43808000Y-109352000D01*
D14*
X36638000Y-110652000D02*
X36638000Y-112892000D01*
D10*
X40408000Y-112752000D02*
X45208000Y-112752000D01*
X45208000Y-112752000D02*
X45208000Y-109152000D01*
X34908000Y-111802000D02*
X35108000Y-111802000D01*
D18*
X35508000Y-114152000D02*
X35508000Y-112352001D01*
D17*
X35008000Y-111702000D02*
X35008000Y-111052000D01*
D10*
X45188000Y-111752000D02*
X45188000Y-109502000D01*
D15*
X44708000Y-109752000D02*
X44708000Y-112252000D01*
D10*
X34908000Y-111052000D02*
X34908000Y-111802000D01*
D13*
X35358000Y-114452000D02*
X37808000Y-114452000D01*
D10*
X37007999Y-109151999D02*
G75*
G03*
X34908000Y-111052001I-100000J-1999999D01*
G01*
D15*
X40008000Y-112352000D02*
G75*
G03*
X37791682Y-114230529I-65001J-2169999D01*
G01*
D10*
X40408000Y-112752000D02*
G75*
G03*
X38191682Y-114630529I-65001J-2169999D01*
G01*
X64220500Y-112752000D02*
X69020500Y-112752000D01*
D13*
X59170500Y-114452000D02*
X61620500Y-114452000D01*
D14*
X60450500Y-110652000D02*
X60450500Y-112892000D01*
D12*
X67220500Y-110952000D02*
X60520500Y-110952000D01*
D17*
X58820500Y-111702000D02*
X58820500Y-111052000D01*
D10*
X69020500Y-112752000D02*
X69020500Y-109152000D01*
D13*
X68820500Y-112502000D02*
X67520500Y-112452000D01*
D10*
X58720500Y-111052000D02*
X58720500Y-111802000D01*
D16*
X68870500Y-109352000D02*
X67620500Y-109352000D01*
D10*
X69000500Y-111752000D02*
X69000500Y-109502000D01*
D18*
X59320500Y-114152000D02*
X59320500Y-112352001D01*
D15*
X68520500Y-109752000D02*
X68520500Y-112252000D01*
D10*
X58970500Y-114652000D02*
X62000500Y-114652000D01*
X69020500Y-109152000D02*
X60820499Y-109152000D01*
X58970500Y-110202000D02*
X58970500Y-114652000D01*
X58720500Y-111802000D02*
X58920500Y-111802000D01*
D15*
X63820500Y-112352000D02*
G75*
G03*
X61604182Y-114230529I-65001J-2169999D01*
G01*
D10*
X60820499Y-109151999D02*
G75*
G03*
X58720500Y-111052001I-100000J-1999999D01*
G01*
X64220500Y-112752000D02*
G75*
G03*
X62004182Y-114630529I-65001J-2169999D01*
G01*
D14*
X79500500Y-110652000D02*
X79500500Y-112892000D01*
D12*
X86270500Y-110952000D02*
X79570500Y-110952000D01*
D10*
X78020500Y-110202000D02*
X78020500Y-114652000D01*
D17*
X77870500Y-111702000D02*
X77870500Y-111052000D01*
D13*
X78220500Y-114452000D02*
X80670500Y-114452000D01*
D15*
X87570500Y-109752000D02*
X87570500Y-112252000D01*
D10*
X88050500Y-111752000D02*
X88050500Y-109502000D01*
X78020500Y-114652000D02*
X81050500Y-114652000D01*
D18*
X78370500Y-114152000D02*
X78370500Y-112352001D01*
D10*
X83270500Y-112752000D02*
X88070500Y-112752000D01*
X88070500Y-112752000D02*
X88070500Y-109152000D01*
D13*
X87870500Y-112502000D02*
X86570500Y-112452000D01*
D16*
X87920500Y-109352000D02*
X86670500Y-109352000D01*
D10*
X88070500Y-109152000D02*
X79870499Y-109152000D01*
X77770500Y-111052000D02*
X77770500Y-111802000D01*
X77770500Y-111802000D02*
X77970500Y-111802000D01*
X79870499Y-109151999D02*
G75*
G03*
X77770500Y-111052001I-100000J-1999999D01*
G01*
D15*
X82870500Y-112352000D02*
G75*
G03*
X80654182Y-114230529I-65001J-2169999D01*
G01*
D10*
X83270500Y-112752000D02*
G75*
G03*
X81054182Y-114630529I-65001J-2169999D01*
G01*
X102320500Y-112752000D02*
X107120500Y-112752000D01*
D16*
X106970500Y-109352000D02*
X105720500Y-109352000D01*
D18*
X97420500Y-114152000D02*
X97420500Y-112352001D01*
D10*
X97070500Y-114652000D02*
X100100500Y-114652000D01*
D13*
X106920500Y-112502000D02*
X105620500Y-112452000D01*
D14*
X98550500Y-110652000D02*
X98550500Y-112892000D01*
D13*
X97270500Y-114452000D02*
X99720500Y-114452000D01*
D10*
X107120500Y-112752000D02*
X107120500Y-109152000D01*
X97070500Y-110202000D02*
X97070500Y-114652000D01*
D12*
X105320500Y-110952000D02*
X98620500Y-110952000D01*
D10*
X107100500Y-111752000D02*
X107100500Y-109502000D01*
D17*
X96920500Y-111702000D02*
X96920500Y-111052000D01*
D15*
X106620500Y-109752000D02*
X106620500Y-112252000D01*
D10*
X96820500Y-111052000D02*
X96820500Y-111802000D01*
X107120500Y-109152000D02*
X98920499Y-109152000D01*
X96820500Y-111802000D02*
X97020500Y-111802000D01*
D15*
X101920500Y-112352000D02*
G75*
G03*
X99704182Y-114230529I-65001J-2169999D01*
G01*
D10*
X102320500Y-112752000D02*
G75*
G03*
X100104182Y-114630529I-65001J-2169999D01*
G01*
X98920499Y-109151999D02*
G75*
G03*
X96820500Y-111052001I-100000J-1999999D01*
G01*
X115870500Y-111052000D02*
X115870500Y-111802000D01*
D16*
X126020500Y-109352000D02*
X124770500Y-109352000D01*
D10*
X116120500Y-110202000D02*
X116120500Y-114652000D01*
X121370500Y-112752000D02*
X126170500Y-112752000D01*
X116120500Y-114652000D02*
X119150500Y-114652000D01*
D18*
X116470500Y-114152000D02*
X116470500Y-112352001D01*
D10*
X115870500Y-111802000D02*
X116070500Y-111802000D01*
X126150500Y-111752000D02*
X126150500Y-109502000D01*
D12*
X124370500Y-110952000D02*
X117670500Y-110952000D01*
D13*
X116320500Y-114452000D02*
X118770500Y-114452000D01*
D10*
X126170500Y-109152000D02*
X117970499Y-109152000D01*
D17*
X115970500Y-111702000D02*
X115970500Y-111052000D01*
D10*
X126170500Y-112752000D02*
X126170500Y-109152000D01*
D14*
X117600500Y-110652000D02*
X117600500Y-112892000D01*
D15*
X125670500Y-109752000D02*
X125670500Y-112252000D01*
D13*
X125970500Y-112502000D02*
X124670500Y-112452000D01*
D10*
X117970499Y-109151999D02*
G75*
G03*
X115870500Y-111052001I-100000J-1999999D01*
G01*
X121370500Y-112752000D02*
G75*
G03*
X119154182Y-114630529I-65001J-2169999D01*
G01*
D15*
X120970500Y-112352000D02*
G75*
G03*
X118754182Y-114230529I-65001J-2169999D01*
G01*
D13*
X182995500Y-114452000D02*
X185445500Y-114452000D01*
D10*
X182795500Y-114652000D02*
X185825500Y-114652000D01*
X182795500Y-110202000D02*
X182795500Y-114652000D01*
D18*
X183145500Y-114152000D02*
X183145500Y-112352001D01*
D10*
X192825500Y-111752000D02*
X192825500Y-109502000D01*
D17*
X182645500Y-111702000D02*
X182645500Y-111052000D01*
D10*
X182545500Y-111052000D02*
X182545500Y-111802000D01*
X192845500Y-109152000D02*
X184645499Y-109152000D01*
X192845500Y-112752000D02*
X192845500Y-109152000D01*
D12*
X191045500Y-110952000D02*
X184345500Y-110952000D01*
D13*
X192645500Y-112502000D02*
X191345500Y-112452000D01*
D15*
X192345500Y-109752000D02*
X192345500Y-112252000D01*
D14*
X184275500Y-110652000D02*
X184275500Y-112892000D01*
D16*
X192695500Y-109352000D02*
X191445500Y-109352000D01*
D10*
X182545500Y-111802000D02*
X182745500Y-111802000D01*
X188045500Y-112752000D02*
X192845500Y-112752000D01*
D15*
X187645500Y-112352000D02*
G75*
G03*
X185429182Y-114230529I-65001J-2169999D01*
G01*
D10*
X188045500Y-112752000D02*
G75*
G03*
X185829182Y-114630529I-65001J-2169999D01*
G01*
X184645499Y-109151999D02*
G75*
G03*
X182545500Y-111052001I-100000J-1999999D01*
G01*
D18*
X202195500Y-114152000D02*
X202195500Y-112352001D01*
D13*
X202045500Y-114452000D02*
X204495500Y-114452000D01*
D17*
X201695500Y-111702000D02*
X201695500Y-111052000D01*
D14*
X203325500Y-110652000D02*
X203325500Y-112892000D01*
D10*
X201845500Y-110202000D02*
X201845500Y-114652000D01*
X201595500Y-111802000D02*
X201795500Y-111802000D01*
X201845500Y-114652000D02*
X204875500Y-114652000D01*
X207095500Y-112752000D02*
X211895500Y-112752000D01*
X211895500Y-112752000D02*
X211895500Y-109152000D01*
D12*
X210095500Y-110952000D02*
X203395500Y-110952000D01*
D10*
X201595500Y-111052000D02*
X201595500Y-111802000D01*
X211895500Y-109152000D02*
X203695499Y-109152000D01*
X211875500Y-111752000D02*
X211875500Y-109502000D01*
D13*
X211695500Y-112502000D02*
X210395500Y-112452000D01*
D16*
X211745500Y-109352000D02*
X210495500Y-109352000D01*
D15*
X211395500Y-109752000D02*
X211395500Y-112252000D01*
D10*
X203695499Y-109151999D02*
G75*
G03*
X201595500Y-111052001I-100000J-1999999D01*
G01*
X207095500Y-112752000D02*
G75*
G03*
X204879182Y-114630529I-65001J-2169999D01*
G01*
D15*
X206695500Y-112352000D02*
G75*
G03*
X204479182Y-114230529I-65001J-2169999D01*
G01*
D10*
X230925500Y-111752000D02*
X230925500Y-109502000D01*
X226145500Y-112752000D02*
X230945500Y-112752000D01*
D13*
X221095500Y-114452000D02*
X223545500Y-114452000D01*
D18*
X221245500Y-114152000D02*
X221245500Y-112352001D01*
D14*
X222375500Y-110652000D02*
X222375500Y-112892000D01*
D10*
X220895500Y-114652000D02*
X223925500Y-114652000D01*
D17*
X220745500Y-111702000D02*
X220745500Y-111052000D01*
D10*
X230945500Y-112752000D02*
X230945500Y-109152000D01*
D13*
X230745500Y-112502000D02*
X229445500Y-112452000D01*
D16*
X230795500Y-109352000D02*
X229545500Y-109352000D01*
D10*
X230945500Y-109152000D02*
X222745499Y-109152000D01*
X220895500Y-110202000D02*
X220895500Y-114652000D01*
D12*
X229145500Y-110952000D02*
X222445500Y-110952000D01*
D10*
X220645500Y-111802000D02*
X220845500Y-111802000D01*
D15*
X230445500Y-109752000D02*
X230445500Y-112252000D01*
D10*
X220645500Y-111052000D02*
X220645500Y-111802000D01*
X222745499Y-109151999D02*
G75*
G03*
X220645500Y-111052001I-100000J-1999999D01*
G01*
D15*
X225745500Y-112352000D02*
G75*
G03*
X223529182Y-114230529I-65001J-2169999D01*
G01*
D10*
X226145500Y-112752000D02*
G75*
G03*
X223929182Y-114630529I-65001J-2169999D01*
G01*
X245195500Y-112752000D02*
X249995500Y-112752000D01*
X249995500Y-112752000D02*
X249995500Y-109152000D01*
D13*
X249795500Y-112502000D02*
X248495500Y-112452000D01*
D10*
X239695500Y-111052000D02*
X239695500Y-111802000D01*
X239945500Y-114652000D02*
X242975500Y-114652000D01*
X249975500Y-111752000D02*
X249975500Y-109502000D01*
X239695500Y-111802000D02*
X239895500Y-111802000D01*
D18*
X240295500Y-114152000D02*
X240295500Y-112352001D01*
D10*
X239945500Y-110202000D02*
X239945500Y-114652000D01*
D12*
X248195500Y-110952000D02*
X241495500Y-110952000D01*
D17*
X239795500Y-111702000D02*
X239795500Y-111052000D01*
D16*
X249845500Y-109352000D02*
X248595500Y-109352000D01*
D10*
X249995500Y-109152000D02*
X241795499Y-109152000D01*
D14*
X241425500Y-110652000D02*
X241425500Y-112892000D01*
D13*
X240145500Y-114452000D02*
X242595500Y-114452000D01*
D15*
X249495500Y-109752000D02*
X249495500Y-112252000D01*
D10*
X241795499Y-109151999D02*
G75*
G03*
X239695500Y-111052001I-100000J-1999999D01*
G01*
D15*
X244795500Y-112352000D02*
G75*
G03*
X242579182Y-114230529I-65001J-2169999D01*
G01*
D10*
X245195500Y-112752000D02*
G75*
G03*
X242979182Y-114630529I-65001J-2169999D01*
G01*
D13*
X273608000Y-112502000D02*
X272308000Y-112452000D01*
D10*
X263508000Y-111802000D02*
X263708000Y-111802000D01*
X263758000Y-110202000D02*
X263758000Y-114652000D01*
X263508000Y-111052000D02*
X263508000Y-111802000D01*
D18*
X264108000Y-114152000D02*
X264108000Y-112352001D01*
D17*
X263608000Y-111702000D02*
X263608000Y-111052000D01*
D10*
X273788000Y-111752000D02*
X273788000Y-109502000D01*
X263758000Y-114652000D02*
X266788000Y-114652000D01*
X269008000Y-112752000D02*
X273808000Y-112752000D01*
X273808000Y-109152000D02*
X265607999Y-109152000D01*
D13*
X263958000Y-114452000D02*
X266408000Y-114452000D01*
D16*
X273658000Y-109352000D02*
X272408000Y-109352000D01*
D14*
X265238000Y-110652000D02*
X265238000Y-112892000D01*
D12*
X272008000Y-110952000D02*
X265308000Y-110952000D01*
D10*
X273808000Y-112752000D02*
X273808000Y-109152000D01*
D15*
X273308000Y-109752000D02*
X273308000Y-112252000D01*
D10*
X265607999Y-109151999D02*
G75*
G03*
X263508000Y-111052001I-100000J-1999999D01*
G01*
D15*
X268608000Y-112352000D02*
G75*
G03*
X266391682Y-114230529I-65001J-2169999D01*
G01*
D10*
X269008000Y-112752000D02*
G75*
G03*
X266791682Y-114630529I-65001J-2169999D01*
G01*
X288058000Y-112752000D02*
X292858000Y-112752000D01*
D12*
X291058000Y-110952000D02*
X284358000Y-110952000D01*
D16*
X292708000Y-109352000D02*
X291458000Y-109352000D01*
D10*
X282558000Y-111802000D02*
X282758000Y-111802000D01*
D18*
X283158000Y-114152000D02*
X283158000Y-112352001D01*
D13*
X283008000Y-114452000D02*
X285458000Y-114452000D01*
D17*
X282658000Y-111702000D02*
X282658000Y-111052000D01*
D14*
X284288000Y-110652000D02*
X284288000Y-112892000D01*
D13*
X292658000Y-112502000D02*
X291358000Y-112452000D01*
D10*
X282808000Y-110202000D02*
X282808000Y-114652000D01*
X292858000Y-112752000D02*
X292858000Y-109152000D01*
X282558000Y-111052000D02*
X282558000Y-111802000D01*
D15*
X292358000Y-109752000D02*
X292358000Y-112252000D01*
D10*
X282808000Y-114652000D02*
X285838000Y-114652000D01*
X292838000Y-111752000D02*
X292838000Y-109502000D01*
X292858000Y-109152000D02*
X284657999Y-109152000D01*
X288058000Y-112752000D02*
G75*
G03*
X285841682Y-114630529I-65001J-2169999D01*
G01*
X284657999Y-109151999D02*
G75*
G03*
X282558000Y-111052001I-100000J-1999999D01*
G01*
D15*
X287658000Y-112352000D02*
G75*
G03*
X285441682Y-114230529I-65001J-2169999D01*
G01*
D10*
X301858000Y-110202000D02*
X301858000Y-114652000D01*
D17*
X301708000Y-111702000D02*
X301708000Y-111052000D01*
D18*
X302208000Y-114152000D02*
X302208000Y-112352001D01*
D10*
X311908000Y-112752000D02*
X311908000Y-109152000D01*
X301608000Y-111052000D02*
X301608000Y-111802000D01*
D13*
X311708000Y-112502000D02*
X310408000Y-112452000D01*
D15*
X311408000Y-109752000D02*
X311408000Y-112252000D01*
D10*
X307108000Y-112752000D02*
X311908000Y-112752000D01*
X301858000Y-114652000D02*
X304888000Y-114652000D01*
X301608000Y-111802000D02*
X301808000Y-111802000D01*
D13*
X302058000Y-114452000D02*
X304508000Y-114452000D01*
D12*
X310108000Y-110952000D02*
X303408000Y-110952000D01*
D10*
X311888000Y-111752000D02*
X311888000Y-109502000D01*
X311908000Y-109152000D02*
X303707999Y-109152000D01*
D14*
X303338000Y-110652000D02*
X303338000Y-112892000D01*
D16*
X311758000Y-109352000D02*
X310508000Y-109352000D01*
D10*
X303707999Y-109151999D02*
G75*
G03*
X301608000Y-111052001I-100000J-1999999D01*
G01*
X307108000Y-112752000D02*
G75*
G03*
X304891682Y-114630529I-65001J-2169999D01*
G01*
D15*
X306708000Y-112352000D02*
G75*
G03*
X304491682Y-114230529I-65001J-2169999D01*
G01*
D16*
X52202000Y-71252000D02*
X50952000Y-71252000D01*
D15*
X51852000Y-71652000D02*
X51852000Y-74152000D01*
D17*
X42152000Y-73602000D02*
X42152000Y-72952000D01*
D10*
X47552000Y-74652000D02*
X52352000Y-74652000D01*
X42302000Y-76552000D02*
X45332000Y-76552000D01*
X52352000Y-71052000D02*
X44151999Y-71052000D01*
X42052000Y-73702000D02*
X42252000Y-73702000D01*
X42052000Y-72952000D02*
X42052000Y-73702000D01*
D14*
X43782000Y-72552000D02*
X43782000Y-74792000D01*
D10*
X52332000Y-73652000D02*
X52332000Y-71402000D01*
D13*
X52152000Y-74402000D02*
X50852000Y-74352000D01*
X42502000Y-76352000D02*
X44952000Y-76352000D01*
D10*
X52352000Y-74652000D02*
X52352000Y-71052000D01*
D12*
X50552000Y-72852000D02*
X43852000Y-72852000D01*
D10*
X42302000Y-72102000D02*
X42302000Y-76552000D01*
D18*
X42652000Y-76052000D02*
X42652000Y-74252001D01*
D15*
X47152000Y-74252000D02*
G75*
G03*
X44935682Y-76130529I-65001J-2169999D01*
G01*
D10*
X47552000Y-74652000D02*
G75*
G03*
X45335682Y-76530529I-65001J-2169999D01*
G01*
X44151999Y-71051999D02*
G75*
G03*
X42052000Y-72952001I-100000J-1999999D01*
G01*
X44433000Y-92752000D02*
X44633000Y-92752000D01*
X54733000Y-93702000D02*
X54733000Y-90102000D01*
X49933000Y-93702000D02*
X54733000Y-93702000D01*
D13*
X54533000Y-93452000D02*
X53233000Y-93402000D01*
D10*
X54733000Y-90102000D02*
X46532999Y-90102000D01*
D18*
X45033000Y-95102000D02*
X45033000Y-93302001D01*
D12*
X52933000Y-91902000D02*
X46233000Y-91902000D01*
D10*
X44683000Y-91152000D02*
X44683000Y-95602000D01*
D17*
X44533000Y-92652000D02*
X44533000Y-92002000D01*
D10*
X44433000Y-92002000D02*
X44433000Y-92752000D01*
X44683000Y-95602000D02*
X47713000Y-95602000D01*
D16*
X54583000Y-90302000D02*
X53333000Y-90302000D01*
D14*
X46163000Y-91602000D02*
X46163000Y-93842000D01*
D15*
X54233000Y-90702000D02*
X54233000Y-93202000D01*
D13*
X44883000Y-95402000D02*
X47333000Y-95402000D01*
D10*
X54713000Y-92702000D02*
X54713000Y-90452000D01*
D15*
X49533000Y-93302000D02*
G75*
G03*
X47316682Y-95180529I-65001J-2169999D01*
G01*
D10*
X46532999Y-90101999D02*
G75*
G03*
X44433000Y-92002001I-100000J-1999999D01*
G01*
X49933000Y-93702000D02*
G75*
G03*
X47716682Y-95580529I-65001J-2169999D01*
G01*
X149208000Y-111802000D02*
X149408000Y-111802000D01*
X159508000Y-109152000D02*
X151307999Y-109152000D01*
X149458000Y-114652000D02*
X152488000Y-114652000D01*
D17*
X149308000Y-111702000D02*
X149308000Y-111052000D01*
D13*
X159308000Y-112502000D02*
X158008000Y-112452000D01*
D10*
X159488000Y-111752000D02*
X159488000Y-109502000D01*
X149208000Y-111052000D02*
X149208000Y-111802000D01*
D14*
X150938000Y-110652000D02*
X150938000Y-112892000D01*
D10*
X159508000Y-112752000D02*
X159508000Y-109152000D01*
D18*
X149808000Y-114152000D02*
X149808000Y-112352001D01*
D13*
X149658000Y-114452000D02*
X152108000Y-114452000D01*
D10*
X154708000Y-112752000D02*
X159508000Y-112752000D01*
X149458000Y-110202000D02*
X149458000Y-114652000D01*
D16*
X159358000Y-109352000D02*
X158108000Y-109352000D01*
D15*
X159008000Y-109752000D02*
X159008000Y-112252000D01*
D12*
X157708000Y-110952000D02*
X151008000Y-110952000D01*
D10*
X154708000Y-112752000D02*
G75*
G03*
X152491682Y-114630529I-65001J-2169999D01*
G01*
X151307999Y-109151999D02*
G75*
G03*
X149208000Y-111052001I-100000J-1999999D01*
G01*
D15*
X154308000Y-112352000D02*
G75*
G03*
X152091682Y-114230529I-65001J-2169999D01*
G01*
D10*
X299226500Y-63427000D02*
X299226500Y-64177000D01*
X299476500Y-67027000D02*
X302506500Y-67027000D01*
D13*
X309326500Y-64877000D02*
X308026500Y-64827000D01*
D15*
X309026500Y-62127000D02*
X309026500Y-64627000D01*
D16*
X309376500Y-61727000D02*
X308126500Y-61727000D01*
D10*
X309526500Y-61527000D02*
X301326499Y-61527000D01*
X309526500Y-65127000D02*
X309526500Y-61527000D01*
D14*
X300956500Y-63027000D02*
X300956500Y-65267000D01*
D17*
X299326500Y-64077000D02*
X299326500Y-63427000D01*
D10*
X309506500Y-64127000D02*
X309506500Y-61877000D01*
D13*
X299676500Y-66827000D02*
X302126500Y-66827000D01*
D18*
X299826500Y-66527000D02*
X299826500Y-64727001D01*
D12*
X307726500Y-63327000D02*
X301026500Y-63327000D01*
D10*
X304726500Y-65127000D02*
X309526500Y-65127000D01*
X299226500Y-64177000D02*
X299426500Y-64177000D01*
X299476500Y-62577000D02*
X299476500Y-67027000D01*
X301326499Y-61526999D02*
G75*
G03*
X299226500Y-63427001I-100000J-1999999D01*
G01*
X304726500Y-65127000D02*
G75*
G03*
X302510182Y-67005529I-65001J-2169999D01*
G01*
D15*
X304326500Y-64727000D02*
G75*
G03*
X302110182Y-66605529I-65001J-2169999D01*
G01*
D10*
X62540000Y-74830000D02*
X62790000Y-74830000D01*
X62790000Y-80830000D02*
X62540000Y-80830000D01*
X59540000Y-80830000D02*
X59290000Y-80830000D01*
X59290000Y-74830000D02*
X59540000Y-74830000D01*
X59290000Y-80830000D02*
X59290000Y-74830000D01*
X62790000Y-74830000D02*
X62790000Y-80830000D01*
X33785000Y-65017500D02*
X33785000Y-62477500D01*
X64265000Y-65017500D02*
X33785000Y-65017500D01*
X64265000Y-47237500D02*
X64265000Y-49777500D01*
X33785000Y-49777500D02*
X33785000Y-47237500D01*
X33785000Y-47237500D02*
X64265000Y-47237500D01*
X33785000Y-62477500D02*
X64265000Y-62477500D01*
X64265000Y-62477500D02*
X64265000Y-65017500D01*
X64265000Y-49777500D02*
X33785000Y-49777500D01*
M02*
