M48
; DRILL file {KiCad (6.0.5)} date Mon Jun  6 23:58:01 2022
; FORMAT={-:-/ absolute / inch / decimal}
; #@! TF.CreationDate,2022-06-06T23:58:01+09:00
; #@! TF.GenerationSoftware,Kicad,Pcbnew,(6.0.5)
; #@! TF.FileFunction,NonPlated,1,2,NPTH
FMAT,2
INCH
; #@! TA.AperFunction,NonPlated,NPTH,ComponentDrill
T1C0.0748
; #@! TA.AperFunction,NonPlated,NPTH,ComponentDrill
T2C0.1181
; #@! TA.AperFunction,NonPlated,NPTH,ComponentDrill
T3C0.1201
; #@! TA.AperFunction,NonPlated,NPTH,ComponentDrill
T4C0.1575
; #@! TA.AperFunction,NonPlated,NPTH,ComponentDrill
T5C0.1614
; #@! TA.AperFunction,NonPlated,NPTH,ComponentDrill
T6C0.1693
%
G90
G05
T1
X1.4066Y-1.5572
X1.4066Y-4.5572
X1.5941Y-2.3072
X1.6879Y-3.0572
X1.7816Y-3.8072
X1.8066Y-1.5572
X1.8066Y-4.5572
X2.0879Y-3.0572
X2.1566Y-1.5572
X2.1816Y-3.8072
X2.3441Y-4.5572
X2.5316Y-2.3072
X2.5566Y-1.5572
X2.7191Y-3.0572
X2.7441Y-4.5572
X2.9066Y-1.5572
X2.9066Y-3.8072
X2.9316Y-2.3072
X3.0941Y-4.5572
X3.1191Y-3.0572
X3.2816Y-2.3072
X3.3066Y-1.5572
X3.3066Y-3.8072
X3.4691Y-3.0572
X3.4941Y-4.5572
X3.6566Y-1.5572
X3.6566Y-3.8072
X3.6816Y-2.3072
X3.8441Y-4.5572
X3.8691Y-3.0572
X4.0316Y-2.3072
X4.0566Y-1.5572
X4.0566Y-3.8072
X4.2191Y-3.0572
X4.2441Y-4.5572
X4.4066Y-1.5572
X4.4066Y-3.8072
X4.4316Y-2.3072
X4.5941Y-4.5572
X4.6191Y-3.0572
X4.7816Y-2.3072
X4.8066Y-1.5572
X4.8066Y-3.8072
X4.9691Y-3.0572
X4.9941Y-4.5572
X5.1566Y-1.5572
X5.1566Y-3.8072
X5.1816Y-2.3072
X5.3691Y-3.0572
X5.5316Y-2.3072
X5.5566Y-1.5572
X5.5566Y-3.8072
X5.7191Y-3.0572
X5.9066Y-1.5572
X5.9066Y-3.8072
X5.9066Y-4.5572
X5.9316Y-2.3072
X6.1191Y-3.0572
X6.2816Y-2.3072
X6.3066Y-1.5572
X6.3066Y-3.8072
X6.3066Y-4.5572
X6.4691Y-3.0572
X6.6566Y-1.5572
X6.6566Y-3.8072
X6.6816Y-2.3072
X6.8691Y-3.0572
X7.0316Y-2.3072
X7.0566Y-1.5572
X7.0566Y-3.8072
X7.2191Y-3.0572
X7.2191Y-4.5572
X7.4066Y-1.5572
X7.4066Y-3.8072
X7.4316Y-2.3072
X7.6191Y-3.0572
X7.6191Y-4.5572
X7.7816Y-2.3072
X7.8066Y-1.5572
X7.8066Y-3.8072
X7.9691Y-3.0572
X7.9691Y-4.5572
X8.1566Y-1.5572
X8.1566Y-3.8072
X8.1816Y-2.3072
X8.3691Y-3.0572
X8.3691Y-4.5572
X8.5316Y-2.3072
X8.5566Y-1.5572
X8.5566Y-3.8072
X8.7191Y-3.0572
X8.7191Y-4.5572
X8.9066Y-1.5572
X8.9066Y-3.8072
X8.9316Y-2.3072
X9.1191Y-3.0572
X9.1191Y-4.5572
X9.2816Y-2.3072
X9.3066Y-1.5572
X9.3066Y-3.8072
X9.4691Y-3.0572
X9.4691Y-4.5572
X9.6566Y-1.5572
X9.6566Y-3.8072
X9.6816Y-2.3072
X9.8691Y-3.0572
X9.8691Y-4.5572
X10.0316Y-2.3072
X10.0566Y-1.5572
X10.0566Y-3.8072
X10.2191Y-3.0572
X10.4066Y-1.5572
X10.4066Y-3.8072
X10.4066Y-4.5572
X10.4316Y-2.3072
X10.6191Y-3.0572
X10.7816Y-2.3072
X10.8066Y-1.5572
X10.8066Y-3.8072
X10.8066Y-4.5572
X10.9691Y-3.0572
X11.1566Y-1.5572
X11.1566Y-3.8072
X11.1566Y-4.5572
X11.1816Y-2.3072
X11.3691Y-3.0572
X11.5566Y-1.5572
X11.5566Y-3.8072
X11.5566Y-4.5572
X11.8129Y-2.6822
X11.9066Y-1.5572
X11.9066Y-3.8072
X11.9066Y-4.5572
X12.2129Y-2.6822
X12.3066Y-1.5572
X12.3066Y-3.8072
X12.3066Y-4.5572
T2
X1.4566Y-1.4572
X1.4566Y-4.4572
X1.6441Y-2.2072
X1.7066Y-1.3572
X1.7066Y-4.3572
X1.7379Y-2.9572
X1.8316Y-3.7072
X1.8941Y-2.1072
X1.9879Y-2.8572
X2.0816Y-3.6072
X2.2066Y-1.4572
X2.3941Y-4.4572
X2.4566Y-1.3572
X2.5816Y-2.2072
X2.6441Y-4.3572
X2.7691Y-2.9572
X2.8316Y-2.1072
X2.9566Y-1.4572
X2.9566Y-3.7072
X3.0191Y-2.8572
X3.1441Y-4.4572
X3.2066Y-1.3572
X3.2066Y-3.6072
X3.3316Y-2.2072
X3.3941Y-4.3572
X3.5191Y-2.9572
X3.5816Y-2.1072
X3.7066Y-1.4572
X3.7066Y-3.7072
X3.7691Y-2.8572
X3.8941Y-4.4572
X3.9566Y-1.3572
X3.9566Y-3.6072
X4.0816Y-2.2072
X4.1441Y-4.3572
X4.2691Y-2.9572
X4.3316Y-2.1072
X4.4566Y-1.4572
X4.4566Y-3.7072
X4.5191Y-2.8572
X4.6441Y-4.4572
X4.7066Y-1.3572
X4.7066Y-3.6072
X4.8316Y-2.2072
X4.8941Y-4.3572
X5.0191Y-2.9572
X5.0816Y-2.1072
X5.2066Y-1.4572
X5.2066Y-3.7072
X5.2691Y-2.8572
X5.4566Y-1.3572
X5.4566Y-3.6072
X5.5816Y-2.2072
X5.7691Y-2.9572
X5.8316Y-2.1072
X5.9566Y-1.4572
X5.9566Y-3.7072
X5.9566Y-4.4572
X6.0191Y-2.8572
X6.2066Y-1.3572
X6.2066Y-3.6072
X6.2066Y-4.3572
X6.3316Y-2.2072
X6.5191Y-2.9572
X6.5816Y-2.1072
X6.7066Y-1.4572
X6.7066Y-3.7072
X6.7691Y-2.8572
X6.9566Y-1.3572
X6.9566Y-3.6072
X7.0816Y-2.2072
X7.2691Y-2.9572
X7.2691Y-4.4572
X7.3316Y-2.1072
X7.4566Y-1.4572
X7.4566Y-3.7072
X7.5191Y-2.8572
X7.5191Y-4.3572
X7.7066Y-1.3572
X7.7066Y-3.6072
X7.8316Y-2.2072
X8.0191Y-2.9572
X8.0191Y-4.4572
X8.0816Y-2.1072
X8.2066Y-1.4572
X8.2066Y-3.7072
X8.2691Y-2.8572
X8.2691Y-4.3572
X8.4566Y-1.3572
X8.4566Y-3.6072
X8.5816Y-2.2072
X8.7691Y-2.9572
X8.7691Y-4.4572
X8.8316Y-2.1072
X8.9566Y-1.4572
X8.9566Y-3.7072
X9.0191Y-2.8572
X9.0191Y-4.3572
X9.2066Y-1.3572
X9.2066Y-3.6072
X9.3316Y-2.2072
X9.5191Y-2.9572
X9.5191Y-4.4572
X9.5816Y-2.1072
X9.7066Y-1.4572
X9.7066Y-3.7072
X9.7691Y-2.8572
X9.7691Y-4.3572
X9.9566Y-1.3572
X9.9566Y-3.6072
X10.0816Y-2.2072
X10.2691Y-2.9572
X10.3316Y-2.1072
X10.4566Y-1.4572
X10.4566Y-3.7072
X10.4566Y-4.4572
X10.5191Y-2.8572
X10.7066Y-1.3572
X10.7066Y-3.6072
X10.7066Y-4.3572
X10.8316Y-2.2072
X11.0191Y-2.9572
X11.0816Y-2.1072
X11.2066Y-1.4572
X11.2066Y-3.7072
X11.2066Y-4.4572
X11.2691Y-2.8572
X11.4566Y-1.3572
X11.4566Y-3.6072
X11.4566Y-4.3572
X11.8629Y-2.5822
X11.9566Y-1.4572
X11.9566Y-3.7072
X11.9566Y-4.4572
X12.1129Y-2.4822
X12.2066Y-1.3572
X12.2066Y-3.6072
X12.2066Y-4.3572
T3
X1.5146Y-3.5382
X2.4516Y-3.5386
X5.6358Y-4.2205
X6.5724Y-4.2201
X11.7374Y-2.2138
X11.7374Y-3.1508
T4
X1.5154Y-4.1382
X2.4512Y-4.1382
X5.6354Y-4.8201
X6.5724Y-4.8201
X12.3374Y-2.2142
X12.3374Y-3.1508
T5
X1.6066Y-1.5572
X1.6066Y-4.5572
X1.7941Y-2.3072
X1.8879Y-3.0572
X1.9816Y-3.8072
X2.3566Y-1.5572
X2.5441Y-4.5572
X2.7316Y-2.3072
X2.9191Y-3.0572
X3.1066Y-1.5572
X3.1066Y-3.8072
X3.2941Y-4.5572
X3.4816Y-2.3072
X3.6691Y-3.0572
X3.8566Y-1.5572
X3.8566Y-3.8072
X4.0441Y-4.5572
X4.2316Y-2.3072
X4.4191Y-3.0572
X4.6066Y-1.5572
X4.6066Y-3.8072
X4.7941Y-4.5572
X4.9816Y-2.3072
X5.1691Y-3.0572
X5.3566Y-1.5572
X5.3566Y-3.8072
X5.7316Y-2.3072
X5.9191Y-3.0572
X6.1066Y-1.5572
X6.1066Y-3.8072
X6.1066Y-4.5572
X6.4816Y-2.3072
X6.6691Y-3.0572
X6.8566Y-1.5572
X6.8566Y-3.8072
X7.2316Y-2.3072
X7.4191Y-3.0572
X7.4191Y-4.5572
X7.6066Y-1.5572
X7.6066Y-3.8072
X7.9816Y-2.3072
X8.1691Y-3.0572
X8.1691Y-4.5572
X8.3566Y-1.5572
X8.3566Y-3.8072
X8.7316Y-2.3072
X8.9191Y-3.0572
X8.9191Y-4.5572
X9.1066Y-1.5572
X9.1066Y-3.8072
X9.4816Y-2.3072
X9.6691Y-3.0572
X9.6691Y-4.5572
X9.8566Y-1.5572
X9.8566Y-3.8072
X10.2316Y-2.3072
X10.4191Y-3.0572
X10.6066Y-1.5572
X10.6066Y-3.8072
X10.6066Y-4.5572
X10.9816Y-2.3072
X11.1691Y-3.0572
X11.3566Y-1.5572
X11.3566Y-3.8072
X11.3566Y-4.5572
X12.0129Y-2.6822
X12.1066Y-1.5572
X12.1066Y-3.8072
X12.1066Y-4.5572
T6
X2.224Y-2.2811
T6
G00X1.2299Y-3.4039
M15
G01X1.348Y-3.4039
M16
G05
G00X6.278Y-3.0339
M15
G01X6.278Y-3.0339
M16
G05
G00X11.4035Y-2.2811
M15
G01X11.5217Y-2.2811
M16
G05
G00X12.326Y-3.4063
M15
G01X12.4441Y-3.4063
M16
G05
T0
M30
