M48
; DRILL file {KiCad (6.0.5)} date Mon Jun  6 23:58:01 2022
; FORMAT={-:-/ absolute / inch / decimal}
; #@! TF.CreationDate,2022-06-06T23:58:01+09:00
; #@! TF.GenerationSoftware,Kicad,Pcbnew,(6.0.5)
; #@! TF.FileFunction,Plated,1,2,PTH
FMAT,2
INCH
; #@! TA.AperFunction,Plated,PTH,ViaDrill
T1C0.0157
; #@! TA.AperFunction,Plated,PTH,ComponentDrill
T2C0.0320
; #@! TA.AperFunction,Plated,PTH,ComponentDrill
T3C0.0512
%
G90
G05
T1
X1.9116Y-2.2024
X1.9638Y-2.1811
X2.026Y-2.2234
X2.0575Y-4.5643
X2.0613Y-4.6152
X2.0668Y-2.4061
X2.1563Y-1.9864
X2.1671Y-4.4591
X2.2982Y-1.9667
X2.3697Y-1.7535
X2.3817Y-2.6375
X2.418Y-1.9489
X2.5643Y-2.5097
X2.8339Y-1.8583
X3.0324Y-1.8481
X3.0541Y-2.6012
X3.8221Y-1.8629
X3.8968Y-2.9912
X4.3528Y-3.5844
X4.5949Y-1.8652
X4.919Y-3.2539
X5.3712Y-1.8687
X5.6708Y-1.9147
X7.0451Y-1.8014
X7.5733Y-2.4161
X9.3972Y-1.992
T2
X1.3301Y-1.8583
X1.3301Y-2.4575
X1.3801Y-1.9097
X1.3801Y-2.5097
X1.4301Y-1.8583
X1.4301Y-2.4575
X1.4801Y-1.9097
X1.4801Y-2.5097
X1.4898Y-4.7331
X1.5301Y-1.8583
X1.5301Y-2.4575
X1.5801Y-1.9097
X1.5801Y-2.5097
X1.6301Y-1.8583
X1.6301Y-2.4575
X1.6801Y-1.9097
X1.6801Y-2.5097
X1.6915Y-1.7409
X1.726Y-4.7331
X1.7301Y-1.8583
X1.7301Y-2.4575
X1.7693Y-3.2374
X1.7801Y-1.9097
X1.7801Y-2.5097
X1.8301Y-1.8583
X1.8301Y-2.4575
X1.8646Y-3.9854
X1.8801Y-1.9097
X1.8801Y-2.5097
X1.9278Y-1.7409
X1.9301Y-1.8583
X1.9301Y-2.4575
X1.9801Y-1.9097
X1.9801Y-2.5097
X2.0055Y-3.2374
X2.0301Y-1.8583
X2.0301Y-2.4575
X2.0801Y-1.9097
X2.0801Y-2.5097
X2.1008Y-3.9854
X2.1301Y-1.8583
X2.1301Y-2.4575
X2.1801Y-1.9097
X2.1801Y-2.5097
X2.2301Y-1.8583
X2.2301Y-2.4575
X2.2342Y-1.7422
X2.2801Y-1.9097
X2.2801Y-2.5097
X2.3301Y-1.8583
X2.3301Y-2.4575
X2.3801Y-1.9097
X2.3801Y-2.5097
X2.4283Y-4.7331
X2.4301Y-1.8583
X2.4301Y-2.4575
X2.4704Y-1.7422
X2.4801Y-1.9097
X2.4801Y-2.5097
X2.6646Y-4.7331
X2.6707Y-2.4937
X2.6709Y-2.5772
X2.802Y-3.2374
X2.9069Y-2.4937
X2.9071Y-2.5772
X2.9822Y-1.7422
X2.9882Y-3.9854
X3.0382Y-3.2374
X3.178Y-4.7331
X3.2184Y-1.7422
X3.2244Y-3.9854
X3.3634Y-2.4902
X3.4142Y-4.7331
X3.5504Y-3.2374
X3.5996Y-2.4902
X3.739Y-3.9854
X3.7394Y-1.7445
X3.7866Y-3.2374
X3.9264Y-4.7331
X3.9752Y-3.9854
X3.9756Y-1.7445
X4.1157Y-2.4902
X4.1626Y-4.7331
X4.3024Y-3.2374
X4.352Y-2.4902
X4.4882Y-3.9854
X4.489Y-1.7433
X4.5386Y-3.2374
X4.6772Y-4.7331
X4.7244Y-3.9854
X4.7252Y-1.7433
X4.872Y-2.4902
X4.9134Y-4.7331
X5.0531Y-3.2374
X5.1082Y-2.4902
X5.2398Y-1.7433
X5.2398Y-3.9854
X5.2894Y-3.2374
X5.476Y-1.7433
X5.476Y-3.9854
X5.62Y-2.4902
X5.8039Y-3.2374
X5.8562Y-2.4902
X5.987Y-4.7331
X5.9894Y-1.7421
X5.9894Y-3.9854
X6.0402Y-3.2374
X6.2232Y-4.7331
X6.2256Y-1.7421
X6.2256Y-3.9854
X6.368Y-2.4902
X6.5524Y-3.2374
X6.6043Y-2.4902
X6.739Y-3.9854
X6.7402Y-1.7421
X6.7886Y-3.2374
X6.9752Y-3.9854
X6.9764Y-1.7421
X7.1161Y-2.4902
X7.3004Y-4.7319
X7.302Y-3.2374
X7.3523Y-2.4902
X7.4898Y-1.7421
X7.4898Y-3.9854
X7.5366Y-4.7319
X7.5382Y-3.2374
X7.726Y-1.7421
X7.726Y-3.9854
X7.8641Y-2.4902
X8.0516Y-3.2374
X8.0516Y-4.7319
X8.1003Y-2.4902
X8.2382Y-1.7421
X8.2406Y-3.9854
X8.2878Y-3.2374
X8.2878Y-4.7319
X8.4744Y-1.7421
X8.4768Y-3.9854
X8.6121Y-2.4902
X8.8024Y-3.2374
X8.8024Y-4.7319
X8.8483Y-2.4902
X8.9902Y-1.7421
X8.9902Y-3.987
X9.0386Y-3.2374
X9.0386Y-4.7319
X9.2264Y-1.7421
X9.2264Y-3.987
X9.3602Y-2.4902
X9.552Y-3.2374
X9.552Y-4.7331
X9.5964Y-2.4902
X9.7398Y-1.7421
X9.7409Y-3.9854
X9.7882Y-3.2374
X9.7882Y-4.7331
X9.976Y-1.7421
X9.9772Y-3.9854
X10.1082Y-2.4902
X10.305Y-3.2383
X10.3444Y-2.4902
X10.4894Y-3.9843
X10.4906Y-1.7421
X10.4906Y-4.7331
X10.5413Y-3.2383
X10.7256Y-3.9843
X10.7268Y-1.7421
X10.7268Y-4.7331
X10.8562Y-2.4902
X11.0531Y-3.2383
X11.0924Y-2.4902
X11.2402Y-3.9854
X11.2402Y-4.7331
X11.2413Y-1.7421
X11.2893Y-3.2383
X11.4764Y-3.9854
X11.4764Y-4.7331
X11.4776Y-1.7421
X11.8984Y-2.8752
X11.9898Y-1.7421
X11.9909Y-3.9854
X11.9921Y-4.7331
X12.1346Y-2.8752
X12.226Y-1.7421
X12.2272Y-3.9854
X12.2283Y-4.7331
T3
X2.4031Y-2.9362
X2.4031Y-3.1921
T0
M30
