<?xml version="1.0"?>
<!-- Generated by SVGo -->
<svg width="295.752mm" height="105.252mm"
     viewBox="0.000 0.000 295.752 105.252"
     xmlns="http://www.w3.org/2000/svg" 
     xmlns:xlink="http://www.w3.org/1999/xlink">
<polygon points="288.564,5.163 288.720,5.169 288.876,5.187 289.030,5.218 289.183,5.260 289.329,5.315 289.471,5.380 289.608,5.457 289.739,5.544 289.862,5.642 289.978,5.748 290.084,5.864 290.183,5.987 290.269,6.118 290.346,6.255 290.411,6.397 290.466,6.544 290.508,6.696 290.539,6.850 290.558,7.006 290.564,7.163 290.564,59.326 287.063,59.326 286.290,59.448 285.594,59.803 285.041,60.356 284.686,61.053 284.564,61.825 284.686,62.599 285.041,63.295 285.594,63.849 286.290,64.204 287.063,64.326 290.564,64.326 290.564,98.090 290.558,98.245 290.539,98.401 290.508,98.555 290.466,98.707 290.411,98.855 290.346,98.996 290.269,99.133 290.183,99.264 290.084,99.388 289.978,99.504 289.862,99.609 289.739,99.707 289.608,99.794 289.471,99.871 289.329,99.936 289.183,99.992 289.030,100.034 288.876,100.064 288.720,100.082 288.564,100.088 7.189,100.090 7.032,100.082 6.876,100.064 6.722,100.034 6.570,99.992 6.423,99.936 6.281,99.871 6.144,99.794 6.013,99.707 5.890,99.609 5.774,99.504 5.668,99.388 5.570,99.264 5.483,99.133 5.406,98.996 5.341,98.855 5.286,98.707 5.244,98.555 5.213,98.401 5.195,98.245 5.188,98.090 5.188,64.326 8.689,64.326 9.462,64.204 10.158,63.849 10.711,63.295 11.066,62.599 11.189,61.826 11.066,61.053 10.711,60.356 10.158,59.803 9.462,59.448 8.690,59.326 5.188,59.326 5.189,7.163 5.195,7.006 5.213,6.850 5.244,6.696 5.286,6.544 5.341,6.397 5.406,6.255 5.483,6.118 5.570,5.987 5.668,5.864 5.774,5.748 5.890,5.642 6.013,5.544 6.144,5.457 6.281,5.380 6.423,5.315 6.570,5.260 6.722,5.218 6.876,5.187 7.032,5.169 7.189,5.162" style="fill:none;stroke-width:0.050000mm;stroke:black"/>
<polygon points="121.826,83.725 121.826,84.725 121.026,84.725 121.026,87.826 121.826,87.826 121.826,88.425 120.300,88.425 120.300,85.195 118.576,85.195 118.576,84.275 115.276,84.275 115.276,85.195 113.550,85.195 113.550,88.425 112.726,88.425 112.726,91.225 113.550,91.225 113.550,97.495 115.276,97.495 115.276,98.475 118.576,98.475 118.576,97.495 120.300,97.495 120.300,93.025 121.826,93.025 121.826,93.626 121.026,93.626 121.026,96.725 121.826,96.725 121.826,97.725 135.826,97.725 135.826,96.725 136.626,96.725 136.626,93.626 135.826,93.626 135.826,93.025 137.351,93.025 137.351,97.495 139.076,97.495 139.076,98.475 142.376,98.475 142.376,97.495 144.101,97.495 144.101,91.225 144.925,91.225 144.925,88.425 144.101,88.425 144.101,85.195 142.376,85.195 142.376,84.275 139.076,84.275 139.076,85.195 137.351,85.195 137.351,88.425 135.826,88.425 135.826,87.826 136.626,87.826 136.626,84.725 135.826,84.725 135.826,83.725" style="fill:none;stroke-width:0.050000mm;stroke:black"/>
<polygon points="7.526,83.725 7.526,84.725 6.726,84.725 6.726,87.826 7.526,87.826 7.526,93.626 6.726,93.626 6.726,96.725 7.526,96.725 7.526,97.725 21.526,97.725 21.526,96.725 22.326,96.725 22.326,93.626 21.526,93.626 21.526,87.826 22.326,87.826 22.326,84.725 21.526,84.725 21.526,83.725" style="fill:none;stroke-width:0.050000mm;stroke:black"/>
<polygon points="31.338,83.725 31.338,84.725 30.538,84.725 30.538,87.826 31.338,87.826 31.338,93.626 30.538,93.626 30.538,96.725 31.338,96.725 31.338,97.725 45.338,97.725 45.338,96.725 46.138,96.725 46.138,93.626 45.338,93.626 45.338,87.826 46.138,87.826 46.138,84.725 45.338,84.725 45.338,83.725" style="fill:none;stroke-width:0.050000mm;stroke:black"/>
<polygon points="50.389,83.725 50.389,84.725 49.588,84.725 49.588,87.826 50.389,87.826 50.389,93.626 49.588,93.626 49.588,96.725 50.389,96.725 50.389,97.725 64.389,97.725 64.389,96.725 65.189,96.725 65.189,93.626 64.389,93.626 64.389,87.826 65.189,87.826 65.189,84.725 64.389,84.725 64.389,83.725" style="fill:none;stroke-width:0.050000mm;stroke:black"/>
<polygon points="69.439,83.725 69.439,84.725 68.639,84.725 68.639,87.826 69.439,87.826 69.439,93.626 68.639,93.626 68.639,96.725 69.439,96.725 69.439,97.725 83.439,97.725 83.439,96.725 84.239,96.725 84.239,93.626 83.439,93.626 83.439,87.826 84.239,87.826 84.239,84.725 83.439,84.725 83.439,83.725" style="fill:none;stroke-width:0.050000mm;stroke:black"/>
<polygon points="88.489,83.725 88.489,84.725 87.689,84.725 87.689,87.826 88.489,87.826 88.489,93.626 87.689,93.626 87.689,96.725 88.489,96.725 88.489,97.725 102.489,97.725 102.489,96.725 103.288,96.725 103.288,93.626 102.489,93.626 102.489,87.826 103.288,87.826 103.288,84.725 102.489,84.725 102.489,83.725" style="fill:none;stroke-width:0.050000mm;stroke:black"/>
<polygon points="155.163,83.725 155.163,84.725 154.363,84.725 154.363,87.826 155.163,87.826 155.163,93.626 154.363,93.626 154.363,96.725 155.163,96.725 155.163,97.725 169.163,97.725 169.163,96.725 169.964,96.725 169.964,93.626 169.163,93.626 169.163,87.826 169.964,87.826 169.964,84.725 169.163,84.725 169.163,83.725" style="fill:none;stroke-width:0.050000mm;stroke:black"/>
<polygon points="174.214,83.725 174.214,84.725 173.413,84.725 173.413,87.826 174.214,87.826 174.214,93.626 173.413,93.626 173.413,96.725 174.214,96.725 174.214,97.725 188.214,97.725 188.214,96.725 189.013,96.725 189.013,93.626 188.214,93.626 188.214,87.826 189.013,87.826 189.013,84.725 188.214,84.725 188.214,83.725" style="fill:none;stroke-width:0.050000mm;stroke:black"/>
<polygon points="193.263,83.725 193.263,84.725 192.464,84.725 192.464,87.826 193.263,87.826 193.263,93.626 192.464,93.626 192.464,96.725 193.263,96.725 193.263,97.725 207.263,97.725 207.263,96.725 208.064,96.725 208.064,93.626 207.263,93.626 207.263,87.826 208.064,87.826 208.064,84.725 207.263,84.725 207.263,83.725" style="fill:none;stroke-width:0.050000mm;stroke:black"/>
<polygon points="212.314,83.725 212.314,84.725 211.513,84.725 211.513,87.826 212.314,87.826 212.314,93.626 211.513,93.626 211.513,96.725 212.314,96.725 212.314,97.725 226.314,97.725 226.314,96.725 227.114,96.725 227.114,93.626 226.314,93.626 226.314,87.826 227.114,87.826 227.114,84.725 226.314,84.725 226.314,83.725" style="fill:none;stroke-width:0.050000mm;stroke:black"/>
<polygon points="236.126,83.725 236.126,84.725 235.326,84.725 235.326,87.826 236.126,87.826 236.126,93.626 235.326,93.626 235.326,96.725 236.126,96.725 236.126,97.725 250.126,97.725 250.126,96.725 250.925,96.725 250.925,93.626 250.126,93.626 250.126,87.826 250.925,87.826 250.925,84.725 250.126,84.725 250.126,83.725" style="fill:none;stroke-width:0.050000mm;stroke:black"/>
<polygon points="255.175,83.725 255.175,84.725 254.376,84.725 254.376,87.826 255.175,87.826 255.175,93.626 254.376,93.626 254.376,96.725 255.175,96.725 255.175,97.725 269.175,97.725 269.175,96.725 269.975,96.725 269.975,93.626 269.175,93.626 269.175,87.826 269.975,87.826 269.975,84.725 269.175,84.725 269.175,83.725" style="fill:none;stroke-width:0.050000mm;stroke:black"/>
<polygon points="274.225,83.725 274.225,84.725 273.425,84.725 273.425,87.826 274.225,87.826 274.225,93.626 273.425,93.626 273.425,96.725 274.225,96.725 274.225,97.725 288.225,97.725 288.225,96.725 289.025,96.725 289.025,93.626 288.225,93.626 288.225,87.826 289.025,87.826 289.025,84.725 288.225,84.725 288.225,83.725" style="fill:none;stroke-width:0.050000mm;stroke:black"/>
<polygon points="17.050,64.675 17.050,65.675 16.251,65.675 16.251,68.775 17.050,68.775 17.050,69.376 15.526,69.376 15.526,66.145 13.801,66.145 13.801,65.225 10.501,65.225 10.501,66.145 8.776,66.145 8.776,69.376 7.951,69.376 7.951,72.175 8.776,72.175 8.776,78.445 10.501,78.445 10.501,79.425 13.801,79.425 13.801,78.445 15.526,78.445 15.526,73.975 17.050,73.975 17.050,74.576 16.251,74.576 16.251,77.675 17.050,77.675 17.050,78.675 31.050,78.675 31.050,77.675 31.851,77.675 31.851,74.576 31.050,74.576 31.050,73.975 32.576,73.975 32.576,78.445 34.300,78.445 34.300,79.425 37.600,79.425 37.600,78.445 39.326,78.445 39.326,72.175 40.151,72.175 40.151,69.376 39.326,69.376 39.326,66.145 37.600,66.145 37.600,65.225 34.300,65.225 34.300,66.145 32.576,66.145 32.576,69.376 31.050,69.376 31.050,68.775 31.851,68.775 31.851,65.675 31.050,65.675 31.050,64.675" style="fill:none;stroke-width:0.050000mm;stroke:black"/>
<polygon points="45.626,64.675 45.626,65.675 44.826,65.675 44.826,68.775 45.626,68.775 45.626,74.576 44.826,74.576 44.826,77.675 45.626,77.675 45.626,78.675 59.626,78.675 59.626,77.675 60.425,77.675 60.425,74.576 59.626,74.576 59.626,68.775 60.425,68.775 60.425,65.675 59.626,65.675 59.626,64.675" style="fill:none;stroke-width:0.050000mm;stroke:black"/>
<polygon points="64.675,64.675 64.675,65.675 63.876,65.675 63.876,68.775 64.675,68.775 64.675,74.576 63.876,74.576 63.876,77.675 64.675,77.675 64.675,78.675 78.675,78.675 78.675,77.675 79.476,77.675 79.476,74.576 78.675,74.576 78.675,68.775 79.476,68.775 79.476,65.675 78.675,65.675 78.675,64.675" style="fill:none;stroke-width:0.050000mm;stroke:black"/>
<polygon points="83.726,64.675 83.726,65.675 82.925,65.675 82.925,68.775 83.726,68.775 83.726,74.576 82.925,74.576 82.925,77.675 83.726,77.675 83.726,78.675 97.726,78.675 97.726,77.675 98.526,77.675 98.526,74.576 97.726,74.576 97.726,68.775 98.526,68.775 98.526,65.675 97.726,65.675 97.726,64.675" style="fill:none;stroke-width:0.050000mm;stroke:black"/>
<polygon points="102.776,64.675 102.776,65.675 101.976,65.675 101.976,68.775 102.776,68.775 102.776,74.576 101.976,74.576 101.976,77.675 102.776,77.675 102.776,78.675 116.776,78.675 116.776,77.675 117.576,77.675 117.576,74.576 116.776,74.576 116.776,68.775 117.576,68.775 117.576,65.675 116.776,65.675 116.776,64.675" style="fill:none;stroke-width:0.050000mm;stroke:black"/>
<polygon points="121.826,64.675 121.826,65.675 121.026,65.675 121.026,68.775 121.826,68.775 121.826,74.576 121.026,74.576 121.026,77.675 121.826,77.675 121.826,78.675 135.826,78.675 135.826,77.675 136.626,77.675 136.626,74.576 135.826,74.576 135.826,68.775 136.626,68.775 136.626,65.675 135.826,65.675 135.826,64.675" style="fill:none;stroke-width:0.050000mm;stroke:black"/>
<polygon points="140.876,64.675 140.876,65.675 140.076,65.675 140.076,68.775 140.876,68.775 140.876,74.576 140.076,74.576 140.076,77.675 140.876,77.675 140.876,78.675 154.876,78.675 154.876,77.675 155.675,77.675 155.675,74.576 154.876,74.576 154.876,68.775 155.675,68.775 155.675,65.675 154.876,65.675 154.876,64.675" style="fill:none;stroke-width:0.050000mm;stroke:black"/>
<polygon points="159.925,64.675 159.925,65.675 159.126,65.675 159.126,68.775 159.925,68.775 159.925,74.576 159.126,74.576 159.126,77.675 159.925,77.675 159.925,78.675 173.925,78.675 173.925,77.675 174.726,77.675 174.726,74.576 173.925,74.576 173.925,68.775 174.726,68.775 174.726,65.675 173.925,65.675 173.925,64.675" style="fill:none;stroke-width:0.050000mm;stroke:black"/>
<polygon points="178.976,64.675 178.976,65.675 178.175,65.675 178.175,68.775 178.976,68.775 178.976,74.576 178.175,74.576 178.175,77.675 178.976,77.675 178.976,78.675 192.976,78.675 192.976,77.675 193.775,77.675 193.775,74.576 192.976,74.576 192.976,68.775 193.775,68.775 193.775,65.675 192.976,65.675 192.976,64.675" style="fill:none;stroke-width:0.050000mm;stroke:black"/>
<polygon points="198.025,64.675 198.025,65.675 197.226,65.675 197.226,68.775 198.025,68.775 198.025,74.576 197.226,74.576 197.226,77.675 198.025,77.675 198.025,78.675 212.025,78.675 212.025,77.675 212.826,77.675 212.826,74.576 212.025,74.576 212.025,68.775 212.826,68.775 212.826,65.675 212.025,65.675 212.025,64.675" style="fill:none;stroke-width:0.050000mm;stroke:black"/>
<polygon points="217.076,64.675 217.076,65.675 216.275,65.675 216.275,68.775 217.076,68.775 217.076,74.576 216.275,74.576 216.275,77.675 217.076,77.675 217.076,78.675 231.076,78.675 231.076,77.675 231.876,77.675 231.876,74.576 231.076,74.576 231.076,68.775 231.876,68.775 231.876,65.675 231.076,65.675 231.076,64.675" style="fill:none;stroke-width:0.050000mm;stroke:black"/>
<polygon points="236.126,64.675 236.126,65.675 235.326,65.675 235.326,68.775 236.126,68.775 236.126,74.576 235.326,74.576 235.326,77.675 236.126,77.675 236.126,78.675 250.126,78.675 250.126,77.675 250.925,77.675 250.925,74.576 250.126,74.576 250.126,68.775 250.925,68.775 250.925,65.675 250.126,65.675 250.126,64.675" style="fill:none;stroke-width:0.050000mm;stroke:black"/>
<polygon points="255.175,64.675 255.175,65.675 254.376,65.675 254.376,68.775 255.175,68.775 255.175,74.576 254.376,74.576 254.376,77.675 255.175,77.675 255.175,78.675 269.175,78.675 269.175,77.675 269.975,77.675 269.975,74.576 269.175,74.576 269.175,68.775 269.975,68.775 269.975,65.675 269.175,65.675 269.175,64.675" style="fill:none;stroke-width:0.050000mm;stroke:black"/>
<polygon points="274.225,64.675 274.225,65.675 273.425,65.675 273.425,68.775 274.225,68.775 274.225,74.576 273.425,74.576 273.425,77.675 274.225,77.675 274.225,78.675 288.225,78.675 288.225,77.675 289.025,77.675 289.025,74.576 288.225,74.576 288.225,68.775 289.025,68.775 289.025,65.675 288.225,65.675 288.225,64.675" style="fill:none;stroke-width:0.050000mm;stroke:black"/>
<polygon points="14.670,45.626 14.670,46.626 13.870,46.626 13.870,49.725 14.670,49.725 14.670,55.526 13.870,55.526 13.870,58.626 14.670,58.626 14.670,59.626 28.670,59.626 28.670,58.626 29.470,58.626 29.470,55.526 28.670,55.526 28.670,49.725 29.470,49.725 29.470,46.626 28.670,46.626 28.670,45.626" style="fill:none;stroke-width:0.050000mm;stroke:black"/>
<polygon points="40.864,45.626 40.864,46.626 40.064,46.626 40.064,49.725 40.864,49.725 40.864,55.526 40.064,55.526 40.064,58.626 40.864,58.626 40.864,59.626 54.864,59.626 54.864,58.626 55.662,58.626 55.662,55.526 54.864,55.526 54.864,49.725 55.662,49.725 55.662,46.626 54.864,46.626 54.864,45.626" style="fill:none;stroke-width:0.050000mm;stroke:black"/>
<polygon points="59.912,45.626 59.912,46.626 59.114,46.626 59.114,49.725 59.912,49.725 59.912,55.526 59.114,55.526 59.114,58.626 59.912,58.626 59.912,59.626 73.913,59.626 73.913,58.626 74.713,58.626 74.713,55.526 73.913,55.526 73.913,49.725 74.713,49.725 74.713,46.626 73.913,46.626 73.913,45.626" style="fill:none;stroke-width:0.050000mm;stroke:black"/>
<polygon points="78.963,45.626 78.963,46.626 78.163,46.626 78.163,49.725 78.963,49.725 78.963,55.526 78.163,55.526 78.163,58.626 78.963,58.626 78.963,59.626 92.963,59.626 92.963,58.626 93.763,58.626 93.763,55.526 92.963,55.526 92.963,49.725 93.763,49.725 93.763,46.626 92.963,46.626 92.963,45.626" style="fill:none;stroke-width:0.050000mm;stroke:black"/>
<polygon points="98.013,45.626 98.013,46.626 97.213,46.626 97.213,49.725 98.013,49.725 98.013,55.526 97.213,55.526 97.213,58.626 98.013,58.626 98.013,59.626 112.013,59.626 112.013,58.626 112.812,58.626 112.812,55.526 112.013,55.526 112.013,49.725 112.812,49.725 112.812,46.626 112.013,46.626 112.013,45.626" style="fill:none;stroke-width:0.050000mm;stroke:black"/>
<polygon points="117.062,45.626 117.062,46.626 116.263,46.626 116.263,49.725 117.062,49.725 117.062,55.526 116.263,55.526 116.263,58.626 117.062,58.626 117.062,59.626 131.064,59.626 131.064,58.626 131.863,58.626 131.863,55.526 131.064,55.526 131.064,49.725 131.863,49.725 131.863,46.626 131.064,46.626 131.064,45.626" style="fill:none;stroke-width:0.050000mm;stroke:black"/>
<polygon points="136.113,45.626 136.113,46.626 135.312,46.626 135.312,49.725 136.113,49.725 136.113,55.526 135.312,55.526 135.312,58.626 136.113,58.626 136.113,59.626 150.113,59.626 150.113,58.626 150.913,58.626 150.913,55.526 150.113,55.526 150.113,49.725 150.913,49.725 150.913,46.626 150.113,46.626 150.113,45.626" style="fill:none;stroke-width:0.050000mm;stroke:black"/>
<polygon points="155.163,45.626 155.163,46.626 154.363,46.626 154.363,49.725 155.163,49.725 155.163,55.526 154.363,55.526 154.363,58.626 155.163,58.626 155.163,59.626 169.163,59.626 169.163,58.626 169.964,58.626 169.964,55.526 169.163,55.526 169.163,49.725 169.964,49.725 169.964,46.626 169.163,46.626 169.163,45.626" style="fill:none;stroke-width:0.050000mm;stroke:black"/>
<polygon points="174.214,45.626 174.214,46.626 173.413,46.626 173.413,49.725 174.214,49.725 174.214,55.526 173.413,55.526 173.413,58.626 174.214,58.626 174.214,59.626 188.214,59.626 188.214,58.626 189.013,58.626 189.013,55.526 188.214,55.526 188.214,49.725 189.013,49.725 189.013,46.626 188.214,46.626 188.214,45.626" style="fill:none;stroke-width:0.050000mm;stroke:black"/>
<polygon points="193.263,45.626 193.263,46.626 192.464,46.626 192.464,49.725 193.263,49.725 193.263,55.526 192.464,55.526 192.464,58.626 193.263,58.626 193.263,59.626 207.263,59.626 207.263,58.626 208.064,58.626 208.064,55.526 207.263,55.526 207.263,49.725 208.064,49.725 208.064,46.626 207.263,46.626 207.263,45.626" style="fill:none;stroke-width:0.050000mm;stroke:black"/>
<polygon points="212.314,45.626 212.314,46.626 211.513,46.626 211.513,49.725 212.314,49.725 212.314,55.526 211.513,55.526 211.513,58.626 212.314,58.626 212.314,59.626 226.314,59.626 226.314,58.626 227.114,58.626 227.114,55.526 226.314,55.526 226.314,49.725 227.114,49.725 227.114,46.626 226.314,46.626 226.314,45.626" style="fill:none;stroke-width:0.050000mm;stroke:black"/>
<polygon points="231.364,45.626 231.364,46.626 230.564,46.626 230.564,49.725 231.364,49.725 231.364,55.526 230.564,55.526 230.564,58.626 231.364,58.626 231.364,59.626 245.364,59.626 245.364,58.626 246.163,58.626 246.163,55.526 245.364,55.526 245.364,49.725 246.163,49.725 246.163,46.626 245.364,46.626 245.364,45.626" style="fill:none;stroke-width:0.050000mm;stroke:black"/>
<polygon points="250.413,45.626 250.413,46.626 249.614,46.626 249.614,49.725 250.413,49.725 250.413,55.526 249.614,55.526 249.614,58.626 250.413,58.626 250.413,59.626 264.413,59.626 264.413,58.626 265.213,58.626 265.213,55.526 264.413,55.526 264.413,49.725 265.213,49.725 265.213,46.626 264.413,46.626 264.413,45.626" style="fill:none;stroke-width:0.050000mm;stroke:black"/>
<polygon points="278.344,27.000 278.344,27.825 272.075,27.825 272.075,29.550 271.094,29.550 271.094,32.849 272.075,32.849 272.075,34.575 276.544,34.575 276.544,36.100 275.944,36.100 275.944,35.300 272.844,35.300 272.844,36.100 271.844,36.100 271.844,50.100 272.844,50.100 272.844,50.901 275.944,50.901 275.944,50.100 276.544,50.100 276.544,51.626 272.075,51.626 272.075,53.350 271.094,53.350 271.094,56.651 272.075,56.651 272.075,58.376 278.344,58.376 278.344,59.200 281.144,59.200 281.144,58.376 284.374,58.376 284.374,56.651 285.294,56.651 285.294,53.350 284.374,53.350 284.374,51.626 281.144,51.626 281.144,50.100 281.744,50.100 281.744,50.901 284.844,50.901 284.844,50.100 285.844,50.100 285.844,36.100 284.844,36.100 284.844,35.300 281.744,35.300 281.744,36.100 281.144,36.100 281.144,34.575 284.374,34.575 284.374,32.849 285.294,32.849 285.294,29.550 284.374,29.550 284.374,27.825 281.144,27.825 281.144,27.000" style="fill:none;stroke-width:0.050000mm;stroke:black"/>
<polygon points="132.804,50.248 132.107,50.603 131.554,51.157 131.197,51.853 131.077,52.627 131.197,53.398 131.554,54.096 132.107,54.648 132.804,55.004 133.577,55.127 134.349,55.004 135.046,54.648 135.599,54.096 135.953,53.398 136.077,52.627 135.953,51.853 135.599,51.157 135.046,50.603 134.349,50.248 133.577,50.127" style="fill:none;stroke-width:0.050000mm;stroke:black"/>
<polygon points="12.289,26.575 12.289,27.575 11.489,27.575 11.489,30.675 12.289,30.675 12.289,36.475 11.489,36.475 11.489,39.575 12.289,39.575 12.289,40.575 26.289,40.575 26.289,39.575 27.088,39.575 27.088,36.475 26.289,36.475 26.289,30.675 27.088,30.675 27.088,27.575 26.289,27.575 26.289,26.575" style="fill:none;stroke-width:0.050000mm;stroke:black"/>
<polygon points="36.100,26.575 36.100,27.575 35.300,27.575 35.300,30.675 36.100,30.675 36.100,36.475 35.300,36.475 35.300,39.575 36.100,39.575 36.100,40.575 50.100,40.575 50.100,39.575 50.901,39.575 50.901,36.475 50.100,36.475 50.100,30.675 50.901,30.675 50.901,27.575 50.100,27.575 50.100,26.575" style="fill:none;stroke-width:0.050000mm;stroke:black"/>
<polygon points="55.151,26.575 55.151,27.575 54.350,27.575 54.350,30.675 55.151,30.675 55.151,36.475 54.350,36.475 54.350,39.575 55.151,39.575 55.151,40.575 69.151,40.575 69.151,39.575 69.951,39.575 69.951,36.475 69.151,36.475 69.151,30.675 69.951,30.675 69.951,27.575 69.151,27.575 69.151,26.575" style="fill:none;stroke-width:0.050000mm;stroke:black"/>
<polygon points="74.201,26.575 74.201,27.575 73.401,27.575 73.401,30.675 74.201,30.675 74.201,36.475 73.401,36.475 73.401,39.575 74.201,39.575 74.201,40.575 88.201,40.575 88.201,39.575 89.001,39.575 89.001,36.475 88.201,36.475 88.201,30.675 89.001,30.675 89.001,27.575 88.201,27.575 88.201,26.575" style="fill:none;stroke-width:0.050000mm;stroke:black"/>
<polygon points="93.251,26.575 93.251,27.575 92.451,27.575 92.451,30.675 93.251,30.675 93.251,36.475 92.451,36.475 92.451,39.575 93.251,39.575 93.251,40.575 107.251,40.575 107.251,39.575 108.050,39.575 108.050,36.475 107.251,36.475 107.251,30.675 108.050,30.675 108.050,27.575 107.251,27.575 107.251,26.575" style="fill:none;stroke-width:0.050000mm;stroke:black"/>
<polygon points="112.300,26.575 112.300,27.575 111.501,27.575 111.501,30.675 112.300,30.675 112.300,36.475 111.501,36.475 111.501,39.575 112.300,39.575 112.300,40.575 126.300,40.575 126.300,39.575 127.101,39.575 127.101,36.475 126.300,36.475 126.300,30.675 127.101,30.675 127.101,27.575 126.300,27.575 126.300,26.575" style="fill:none;stroke-width:0.050000mm;stroke:black"/>
<polygon points="131.351,26.575 131.351,27.575 130.550,27.575 130.550,30.675 131.351,30.675 131.351,36.475 130.550,36.475 130.550,39.575 131.351,39.575 131.351,40.575 145.351,40.575 145.351,39.575 146.150,39.575 146.150,36.475 145.351,36.475 145.351,30.675 146.150,30.675 146.150,27.575 145.351,27.575 145.351,26.575" style="fill:none;stroke-width:0.050000mm;stroke:black"/>
<polygon points="150.400,26.575 150.400,27.575 149.601,27.575 149.601,30.675 150.400,30.675 150.400,36.475 149.601,36.475 149.601,39.575 150.400,39.575 150.400,40.575 164.400,40.575 164.400,39.575 165.201,39.575 165.201,36.475 164.400,36.475 164.400,30.675 165.201,30.675 165.201,27.575 164.400,27.575 164.400,26.575" style="fill:none;stroke-width:0.050000mm;stroke:black"/>
<polygon points="169.451,26.575 169.451,27.575 168.650,27.575 168.650,30.675 169.451,30.675 169.451,36.475 168.650,36.475 168.650,39.575 169.451,39.575 169.451,40.575 183.451,40.575 183.451,39.575 184.251,39.575 184.251,36.475 183.451,36.475 183.451,30.675 184.251,30.675 184.251,27.575 183.451,27.575 183.451,26.575" style="fill:none;stroke-width:0.050000mm;stroke:black"/>
<polygon points="188.501,26.575 188.501,27.575 187.701,27.575 187.701,30.675 188.501,30.675 188.501,36.475 187.701,36.475 187.701,39.575 188.501,39.575 188.501,40.575 202.501,40.575 202.501,39.575 203.300,39.575 203.300,36.475 202.501,36.475 202.501,30.675 203.300,30.675 203.300,27.575 202.501,27.575 202.501,26.575" style="fill:none;stroke-width:0.050000mm;stroke:black"/>
<polygon points="207.550,26.575 207.550,27.575 206.751,27.575 206.751,30.675 207.550,30.675 207.550,36.475 206.751,36.475 206.751,39.575 207.550,39.575 207.550,40.575 221.550,40.575 221.550,39.575 222.351,39.575 222.351,36.475 221.550,36.475 221.550,30.675 222.351,30.675 222.351,27.575 221.550,27.575 221.550,26.575" style="fill:none;stroke-width:0.050000mm;stroke:black"/>
<polygon points="226.601,26.575 226.601,27.575 225.800,27.575 225.800,30.675 226.601,30.675 226.601,36.475 225.800,36.475 225.800,39.575 226.601,39.575 226.601,40.575 240.601,40.575 240.601,39.575 241.400,39.575 241.400,36.475 240.601,36.475 240.601,30.675 241.400,30.675 241.400,27.575 240.601,27.575 240.601,26.575" style="fill:none;stroke-width:0.050000mm;stroke:black"/>
<polygon points="245.650,26.575 245.650,27.575 244.851,27.575 244.851,30.675 245.650,30.675 245.650,36.475 244.851,36.475 244.851,39.575 245.650,39.575 245.650,40.575 259.650,40.575 259.650,39.575 260.450,39.575 260.450,36.475 259.650,36.475 259.650,30.675 260.450,30.675 260.450,27.575 259.650,27.575 259.650,26.575" style="fill:none;stroke-width:0.050000mm;stroke:black"/>
<polygon points="29.803,30.848 29.107,31.203 28.553,31.756 28.199,32.453 28.077,33.227 28.199,33.998 28.553,34.695 29.107,35.248 29.803,35.603 30.577,35.727 31.349,35.603 32.046,35.248 32.597,34.695 32.954,33.998 33.076,33.227 32.954,32.453 32.597,31.756 32.046,31.203 31.349,30.848 30.577,30.726" style="fill:none;stroke-width:0.050000mm;stroke:black"/>
<polygon points="264.653,30.848 263.956,31.203 263.403,31.756 263.048,32.453 262.926,33.227 263.048,33.998 263.403,34.695 263.956,35.248 264.653,35.603 265.426,35.727 266.198,35.603 266.895,35.248 267.448,34.695 267.803,33.998 267.926,33.227 267.803,32.453 267.448,31.756 266.895,31.203 266.198,30.848 265.426,30.726" style="fill:none;stroke-width:0.050000mm;stroke:black"/>
<polygon points="7.526,7.525 7.526,8.525 6.726,8.525 6.726,11.625 7.526,11.625 7.526,17.425 6.726,17.425 6.726,20.525 7.526,20.525 7.526,21.525 21.526,21.525 21.526,20.525 22.326,20.525 22.326,17.425 21.526,17.425 21.526,11.625 22.326,11.625 22.326,8.525 21.526,8.525 21.526,7.525" style="fill:none;stroke-width:0.050000mm;stroke:black"/>
<polygon points="26.576,7.525 26.576,8.525 25.776,8.525 25.776,11.625 26.576,11.625 26.576,17.425 25.776,17.425 25.776,20.525 26.576,20.525 26.576,21.525 40.576,21.525 40.576,20.525 41.376,20.525 41.376,17.425 40.576,17.425 40.576,11.625 41.376,11.625 41.376,8.525 40.576,8.525 40.576,7.525" style="fill:none;stroke-width:0.050000mm;stroke:black"/>
<polygon points="45.626,7.525 45.626,8.525 44.826,8.525 44.826,11.625 45.626,11.625 45.626,17.425 44.826,17.425 44.826,20.525 45.626,20.525 45.626,21.525 59.626,21.525 59.626,20.525 60.425,20.525 60.425,17.425 59.626,17.425 59.626,11.625 60.425,11.625 60.425,8.525 59.626,8.525 59.626,7.525" style="fill:none;stroke-width:0.050000mm;stroke:black"/>
<polygon points="64.675,7.525 64.675,8.525 63.876,8.525 63.876,11.625 64.675,11.625 64.675,17.425 63.876,17.425 63.876,20.525 64.675,20.525 64.675,21.525 78.675,21.525 78.675,20.525 79.476,20.525 79.476,17.425 78.675,17.425 78.675,11.625 79.476,11.625 79.476,8.525 78.675,8.525 78.675,7.525" style="fill:none;stroke-width:0.050000mm;stroke:black"/>
<polygon points="83.726,7.525 83.726,8.525 82.925,8.525 82.925,11.625 83.726,11.625 83.726,17.425 82.925,17.425 82.925,20.525 83.726,20.525 83.726,21.525 97.726,21.525 97.726,20.525 98.526,20.525 98.526,17.425 97.726,17.425 97.726,11.625 98.526,11.625 98.526,8.525 97.726,8.525 97.726,7.525" style="fill:none;stroke-width:0.050000mm;stroke:black"/>
<polygon points="102.776,7.525 102.776,8.525 101.976,8.525 101.976,11.625 102.776,11.625 102.776,17.425 101.976,17.425 101.976,20.525 102.776,20.525 102.776,21.525 116.776,21.525 116.776,20.525 117.576,20.525 117.576,17.425 116.776,17.425 116.776,11.625 117.576,11.625 117.576,8.525 116.776,8.525 116.776,7.525" style="fill:none;stroke-width:0.050000mm;stroke:black"/>
<polygon points="121.826,7.525 121.826,8.525 121.026,8.525 121.026,11.625 121.826,11.625 121.826,17.425 121.026,17.425 121.026,20.525 121.826,20.525 121.826,21.525 135.826,21.525 135.826,20.525 136.626,20.525 136.626,17.425 135.826,17.425 135.826,11.625 136.626,11.625 136.626,8.525 135.826,8.525 135.826,7.525" style="fill:none;stroke-width:0.050000mm;stroke:black"/>
<polygon points="140.876,7.525 140.876,8.525 140.076,8.525 140.076,11.625 140.876,11.625 140.876,17.425 140.076,17.425 140.076,20.525 140.876,20.525 140.876,21.525 154.876,21.525 154.876,20.525 155.675,20.525 155.675,17.425 154.876,17.425 154.876,11.625 155.675,11.625 155.675,8.525 154.876,8.525 154.876,7.525" style="fill:none;stroke-width:0.050000mm;stroke:black"/>
<polygon points="159.925,7.525 159.925,8.525 159.126,8.525 159.126,11.625 159.925,11.625 159.925,17.425 159.126,17.425 159.126,20.525 159.925,20.525 159.925,21.525 173.925,21.525 173.925,20.525 174.726,20.525 174.726,17.425 173.925,17.425 173.925,11.625 174.726,11.625 174.726,8.525 173.925,8.525 173.925,7.525" style="fill:none;stroke-width:0.050000mm;stroke:black"/>
<polygon points="178.976,7.525 178.976,8.525 178.175,8.525 178.175,11.625 178.976,11.625 178.976,17.425 178.175,17.425 178.175,20.525 178.976,20.525 178.976,21.525 192.976,21.525 192.976,20.525 193.775,20.525 193.775,17.425 192.976,17.425 192.976,11.625 193.775,11.625 193.775,8.525 192.976,8.525 192.976,7.525" style="fill:none;stroke-width:0.050000mm;stroke:black"/>
<polygon points="198.025,7.525 198.025,8.525 197.226,8.525 197.226,11.625 198.025,11.625 198.025,17.425 197.226,17.425 197.226,20.525 198.025,20.525 198.025,21.525 212.025,21.525 212.025,20.525 212.826,20.525 212.826,17.425 212.025,17.425 212.025,11.625 212.826,11.625 212.826,8.525 212.025,8.525 212.025,7.525" style="fill:none;stroke-width:0.050000mm;stroke:black"/>
<polygon points="217.076,7.525 217.076,8.525 216.275,8.525 216.275,11.625 217.076,11.625 217.076,17.425 216.275,17.425 216.275,20.525 217.076,20.525 217.076,21.525 231.076,21.525 231.076,20.525 231.876,20.525 231.876,17.425 231.076,17.425 231.076,11.625 231.876,11.625 231.876,8.525 231.076,8.525 231.076,7.525" style="fill:none;stroke-width:0.050000mm;stroke:black"/>
<polygon points="236.126,7.525 236.126,8.525 235.326,8.525 235.326,11.625 236.126,11.625 236.126,17.425 235.326,17.425 235.326,20.525 236.126,20.525 236.126,21.525 250.126,21.525 250.126,20.525 250.925,20.525 250.925,17.425 250.126,17.425 250.126,11.625 250.925,11.625 250.925,8.525 250.126,8.525 250.126,7.525" style="fill:none;stroke-width:0.050000mm;stroke:black"/>
<polygon points="255.175,7.525 255.175,8.525 254.376,8.525 254.376,11.625 255.175,11.625 255.175,17.425 254.376,17.425 254.376,20.525 255.175,20.525 255.175,21.525 269.175,21.525 269.175,20.525 269.975,20.525 269.975,17.425 269.175,17.425 269.175,11.625 269.975,11.625 269.975,8.525 269.175,8.525 269.175,7.525" style="fill:none;stroke-width:0.050000mm;stroke:black"/>
<polygon points="274.225,7.525 274.225,8.525 273.425,8.525 273.425,11.625 274.225,11.625 274.225,17.425 273.425,17.425 273.425,20.525 274.225,20.525 274.225,21.525 288.225,21.525 288.225,20.525 289.025,20.525 289.025,17.425 288.225,17.425 288.225,11.625 289.025,11.625 289.025,8.525 288.225,8.525 288.225,7.525" style="fill:none;stroke-width:0.050000mm;stroke:black"/>
</svg>
